999
"DXF R12 Output" (www.mydxf.blogspot.com)
 0 
SECTION
 2 
HEADER
 9 
$ACADVER
 1 
AC1009
 9 
$EXTMIN
 10 
 0 
 20 
 0 
 9 
$EXTMAX
 10 
 8.5 
 20 
 11 
 0 
ENDSEC
 0 
SECTION
 2 
ENTITIES
0
POLYLINE
8
Layer 1
62
7
70
0
10
0.000000
20
0.000000
66
1
0
VERTEX
8
Layer 1
10
0.000000
20
95.514600
70
0
0
VERTEX
8
Layer 1
10
151.341476
20
95.514600
70
0
0
VERTEX
8
Layer 1
10
151.341476
20
0.000137
70
0
0
VERTEX
8
Layer 1
10
0.000000
20
0.000137
70
0
0
VERTEX
8
Layer 1
10
0.000000
20
95.514600
70
0
0
SEQEND
8
Layer 1
0
POLYLINE
8
Layer 1
62
7
70
1
10
0.000000
20
0.000000
66
1
0
VERTEX
8
Layer 1
10
30.100814
20
68.367061
70
0
0
VERTEX
8
Layer 1
10
31.431344
20
68.522615
70
0
0
VERTEX
8
Layer 1
10
32.817883
20
68.443890
70
0
0
VERTEX
8
Layer 1
10
34.219404
20
68.083730
70
0
0
VERTEX
8
Layer 1
10
35.594880
20
67.394983
70
0
0
VERTEX
8
Layer 1
10
36.558124
20
66.674677
70
0
0
VERTEX
8
Layer 1
10
37.360409
20
65.835829
70
0
0
VERTEX
8
Layer 1
10
38.003102
20
64.897613
70
0
0
VERTEX
8
Layer 1
10
38.487566
20
63.879204
70
0
0
VERTEX
8
Layer 1
10
39.687715
20
63.179118
70
0
0
VERTEX
8
Layer 1
10
40.862397
20
63.048327
70
0
0
VERTEX
8
Layer 1
10
41.963261
20
62.644164
70
0
0
VERTEX
8
Layer 1
10
42.941093
20
61.985853
70
0
0
VERTEX
8
Layer 1
10
43.746682
20
61.092616
70
0
0
VERTEX
8
Layer 1
10
44.310145
20
60.031076
70
0
0
VERTEX
8
Layer 1
10
44.594406
20
58.888177
70
0
0
VERTEX
8
Layer 1
10
44.598276
20
57.716603
70
0
0
VERTEX
8
Layer 1
10
44.320563
20
56.569041
70
0
0
VERTEX
8
Layer 1
10
44.418723
20
56.238312
70
0
0
VERTEX
8
Layer 1
10
45.871548
20
55.784288
70
0
0
VERTEX
8
Layer 1
10
46.917544
20
56.168661
70
0
0
VERTEX
8
Layer 1
10
48.026842
20
56.306574
70
0
0
VERTEX
8
Layer 1
10
48.003558
20
58.286978
70
0
0
VERTEX
8
Layer 1
10
47.650605
20
59.107979
70
0
0
VERTEX
8
Layer 1
10
48.193793
20
59.341606
70
0
0
VERTEX
8
Layer 1
10
48.530608
20
60.386444
70
0
0
VERTEX
8
Layer 1
10
49.005270
20
61.376514
70
0
0
VERTEX
8
Layer 1
10
48.772172
20
61.919438
70
0
0
VERTEX
8
Layer 1
10
49.593173
20
62.272656
70
0
0
VERTEX
8
Layer 1
10
50.996786
20
63.713046
70
0
0
VERTEX
8
Layer 1
10
51.327250
20
64.540927
70
0
0
VERTEX
8
Layer 1
10
51.875201
20
64.322116
70
0
0
VERTEX
8
Layer 1
10
53.887355
20
65.187038
70
0
0
VERTEX
8
Layer 1
10
54.105901
20
65.735254
70
0
0
VERTEX
8
Layer 1
10
54.934310
20
65.404790
70
0
0
VERTEX
8
Layer 1
10
56.944612
20
65.432042
70
0
0
VERTEX
8
Layer 1
10
57.766142
20
65.785260
70
0
0
VERTEX
8
Layer 1
10
57.999504
20
65.241807
70
0
0
VERTEX
8
Layer 1
10
58.849345
20
64.980134
70
0
0
VERTEX
8
Layer 1
10
59.044607
20
64.904993
70
0
0
VERTEX
8
Layer 1
10
59.237488
20
64.825353
70
0
0
VERTEX
8
Layer 1
10
60.034412
20
64.430066
70
0
0
VERTEX
8
Layer 1
10
60.577865
20
64.663693
70
0
0
VERTEX
8
Layer 1
10
60.930819
20
63.842692
70
0
0
VERTEX
8
Layer 1
10
62.370680
20
62.439079
70
0
0
VERTEX
8
Layer 1
10
63.199089
20
62.108615
70
0
0
VERTEX
8
Layer 1
10
62.980279
20
61.560928
70
0
0
VERTEX
8
Layer 1
10
63.844936
20
59.548510
70
0
0
VERTEX
8
Layer 1
10
64.393417
20
59.329964
70
0
0
VERTEX
8
Layer 1
10
64.062953
20
58.502084
70
0
0
VERTEX
8
Layer 1
10
64.134919
20
57.683993
70
0
0
VERTEX
8
Layer 1
10
65.187530
20
58.312279
70
0
0
VERTEX
8
Layer 1
10
66.350273
20
58.795507
70
0
0
VERTEX
8
Layer 1
10
67.657180
20
59.182327
70
0
0
VERTEX
8
Layer 1
10
69.051401
20
59.441354
70
0
0
VERTEX
8
Layer 1
10
70.422734
20
59.395581
70
0
0
VERTEX
8
Layer 1
10
71.741052
20
60.405957
70
0
0
VERTEX
8
Layer 1
10
73.332618
20
61.142093
70
0
0
VERTEX
8
Layer 1
10
74.644884
20
61.467034
70
0
0
VERTEX
8
Layer 1
10
75.979771
20
61.577068
70
0
0
VERTEX
8
Layer 1
10
77.321207
20
61.466241
70
0
0
VERTEX
8
Layer 1
10
78.653118
20
61.128600
70
0
0
VERTEX
8
Layer 1
10
79.859451
20
60.596391
70
0
0
VERTEX
8
Layer 1
10
80.872903
20
59.901464
70
0
0
VERTEX
8
Layer 1
10
81.707662
20
59.084299
70
0
0
VERTEX
8
Layer 1
10
82.377917
20
58.185378
70
0
0
VERTEX
8
Layer 1
10
83.227328
20
58.452177
70
0
0
VERTEX
8
Layer 1
10
84.112060
20
58.561020
70
0
0
VERTEX
8
Layer 1
10
85.009790
20
58.506251
70
0
0
VERTEX
8
Layer 1
10
85.898194
20
58.282216
70
0
0
VERTEX
8
Layer 1
10
86.531076
20
58.005991
70
0
0
VERTEX
8
Layer 1
10
87.170173
20
58.603961
70
0
0
VERTEX
8
Layer 1
10
87.905684
20
59.078776
70
0
0
VERTEX
8
Layer 1
10
88.720521
20
59.416917
70
0
0
VERTEX
8
Layer 1
10
89.597593
20
59.604866
70
0
0
VERTEX
8
Layer 1
10
91.341096
20
59.608504
70
0
0
VERTEX
8
Layer 1
10
92.819685
20
59.341077
70
0
0
VERTEX
8
Layer 1
10
93.117341
20
59.262231
70
0
0
VERTEX
8
Layer 1
10
93.146445
20
59.325731
70
0
0
VERTEX
8
Layer 1
10
93.925167
20
60.727517
70
0
0
VERTEX
8
Layer 1
10
94.878835
20
62.001856
70
0
0
VERTEX
8
Layer 1
10
95.982175
20
63.139670
70
0
0
VERTEX
8
Layer 1
10
97.209911
20
64.131881
70
0
0
VERTEX
8
Layer 1
10
98.543016
20
64.973619
70
0
0
VERTEX
8
Layer 1
10
99.962864
20
65.659385
70
0
0
VERTEX
8
Layer 1
10
101.450130
20
66.182730
70
0
0
VERTEX
8
Layer 1
10
102.985493
20
66.537205
70
0
0
VERTEX
8
Layer 1
10
104.551213
20
66.716522
70
0
0
VERTEX
8
Layer 1
10
106.131319
20
66.713451
70
0
0
VERTEX
8
Layer 1
10
107.703190
20
66.519532
70
0
0
VERTEX
8
Layer 1
10
109.244204
20
66.126308
70
0
0
VERTEX
8
Layer 1
10
110.544729
20
65.613116
70
0
0
VERTEX
8
Layer 1
10
111.778380
20
64.940182
70
0
0
VERTEX
8
Layer 1
10
113.020498
20
65.078675
70
0
0
VERTEX
8
Layer 1
10
114.279682
20
65.065661
70
0
0
VERTEX
8
Layer 1
10
115.537774
20
64.891813
70
0
0
VERTEX
8
Layer 1
10
116.776617
20
64.547806
70
0
0
VERTEX
8
Layer 1
10
118.292500
20
63.846483
70
0
0
VERTEX
8
Layer 1
10
119.666029
20
62.853185
70
0
0
VERTEX
8
Layer 1
10
120.828272
20
61.575377
70
0
0
VERTEX
8
Layer 1
10
121.710297
20
60.020526
70
0
0
VERTEX
8
Layer 1
10
122.686228
20
60.698532
70
0
0
VERTEX
8
Layer 1
10
123.774573
20
61.115271
70
0
0
VERTEX
8
Layer 1
10
124.924831
20
61.262979
70
0
0
VERTEX
8
Layer 1
10
126.086499
20
61.133891
70
0
0
VERTEX
8
Layer 1
10
127.202023
20
61.515722
70
0
0
VERTEX
8
Layer 1
10
128.367403
20
61.620162
70
0
0
VERTEX
8
Layer 1
10
129.530304
20
61.443565
70
0
0
VERTEX
8
Layer 1
10
130.638385
20
60.982285
70
0
0
VERTEX
8
Layer 1
10
131.600748
20
60.265550
70
0
0
VERTEX
8
Layer 1
10
132.346467
20
59.356257
70
0
0
VERTEX
8
Layer 1
10
132.851978
20
58.301261
70
0
0
VERTEX
8
Layer 1
10
133.093716
20
57.147419
70
0
0
VERTEX
8
Layer 1
10
133.804844
20
56.203325
70
0
0
VERTEX
8
Layer 1
10
134.266513
20
55.125311
70
0
0
VERTEX
8
Layer 1
10
134.458952
20
53.962315
70
0
0
VERTEX
8
Layer 1
10
134.362391
20
52.763279
70
0
0
VERTEX
8
Layer 1
10
133.977071
20
51.625001
70
0
0
VERTEX
8
Layer 1
10
133.341002
20
50.633915
70
0
0
VERTEX
8
Layer 1
10
132.491661
20
49.826978
70
0
0
VERTEX
8
Layer 1
10
131.466530
20
49.241150
70
0
0
VERTEX
8
Layer 1
10
131.363872
20
49.059117
70
0
0
VERTEX
8
Layer 1
10
132.856848
20
47.943635
70
0
0
VERTEX
8
Layer 1
10
134.114477
20
46.446360
70
0
0
VERTEX
8
Layer 1
10
134.737404
20
45.049725
70
0
0
VERTEX
8
Layer 1
10
134.898965
20
43.529068
70
0
0
VERTEX
8
Layer 1
10
134.736937
20
41.887905
70
0
0
VERTEX
8
Layer 1
10
134.373867
20
40.211693
70
0
0
VERTEX
8
Layer 1
10
133.749009
20
38.567181
70
0
0
VERTEX
8
Layer 1
10
132.801616
20
37.021120
70
0
0
VERTEX
8
Layer 1
10
132.764045
20
36.972172
70
0
0
VERTEX
8
Layer 1
10
131.835371
20
35.934746
70
0
0
VERTEX
8
Layer 1
10
130.727980
20
35.005493
70
0
0
VERTEX
8
Layer 1
10
129.434504
20
34.244863
70
0
0
VERTEX
8
Layer 1
10
127.947576
20
33.713303
70
0
0
VERTEX
8
Layer 1
10
126.341987
20
33.444189
70
0
0
VERTEX
8
Layer 1
10
124.660397
20
33.454276
70
0
0
VERTEX
8
Layer 1
10
123.237900
20
32.658179
70
0
0
VERTEX
8
Layer 1
10
121.645738
20
32.109930
70
0
0
VERTEX
8
Layer 1
10
119.271900
20
31.799210
70
0
0
VERTEX
8
Layer 1
10
116.935367
20
32.062570
70
0
0
VERTEX
8
Layer 1
10
116.373658
20
31.181773
70
0
0
VERTEX
8
Layer 1
10
116.007793
20
30.163327
70
0
0
VERTEX
8
Layer 1
10
115.470603
20
29.270888
70
0
0
VERTEX
8
Layer 1
10
114.793663
20
28.515074
70
0
0
VERTEX
8
Layer 1
10
114.008550
20
27.906500
70
0
0
VERTEX
8
Layer 1
10
113.231565
20
27.486590
70
0
0
VERTEX
8
Layer 1
10
112.306719
20
27.163418
70
0
0
VERTEX
8
Layer 1
10
111.251847
20
26.999989
70
0
0
VERTEX
8
Layer 1
10
110.084784
20
27.059305
70
0
0
VERTEX
8
Layer 1
10
109.961224
20
27.080736
70
0
0
VERTEX
8
Layer 1
10
108.924786
20
26.943583
70
0
0
VERTEX
8
Layer 1
10
107.851439
20
27.001097
70
0
0
VERTEX
8
Layer 1
10
106.745151
20
26.833913
70
0
0
VERTEX
8
Layer 1
10
105.608304
20
26.889972
70
0
0
VERTEX
8
Layer 1
10
104.065289
20
26.708203
70
0
0
VERTEX
8
Layer 1
10
102.707416
20
26.907434
70
0
0
VERTEX
8
Layer 1
10
102.486490
20
26.973580
70
0
0
VERTEX
8
Layer 1
10
100.943111
20
27.740772
70
0
0
VERTEX
8
Layer 1
10
100.168048
20
28.397008
70
0
0
VERTEX
8
Layer 1
10
99.469979
20
29.274129
70
0
0
VERTEX
8
Layer 1
10
98.991877
20
30.203874
70
0
0
VERTEX
8
Layer 1
10
97.398649
20
29.496768
70
0
0
VERTEX
8
Layer 1
10
95.747428
20
29.121994
70
0
0
VERTEX
8
Layer 1
10
94.064854
20
29.071070
70
0
0
VERTEX
8
Layer 1
10
92.377567
20
29.335513
70
0
0
VERTEX
8
Layer 1
10
90.402455
20
30.079322
70
0
0
VERTEX
8
Layer 1
10
89.458158
20
30.658593
70
0
0
VERTEX
8
Layer 1
10
88.582918
20
31.392645
70
0
0
VERTEX
8
Layer 1
10
87.085709
20
31.025536
70
0
0
VERTEX
8
Layer 1
10
85.501584
20
31.155314
70
0
0
VERTEX
8
Layer 1
10
82.223665
20
31.973140
70
0
0
VERTEX
8
Layer 1
10
81.311416
20
32.299437
70
0
0
VERTEX
8
Layer 1
10
80.489853
20
32.792819
70
0
0
VERTEX
8
Layer 1
10
79.364490
20
32.660093
70
0
0
VERTEX
8
Layer 1
10
78.205245
20
32.669424
70
0
0
VERTEX
8
Layer 1
10
77.028041
20
32.845690
70
0
0
VERTEX
8
Layer 1
10
75.848802
20
33.213770
70
0
0
VERTEX
8
Layer 1
10
74.839584
20
31.934958
70
0
0
VERTEX
8
Layer 1
10
73.648596
20
30.892782
70
0
0
VERTEX
8
Layer 1
10
72.313246
20
30.077519
70
0
0
VERTEX
8
Layer 1
10
70.870938
20
29.479446
70
0
0
VERTEX
8
Layer 1
10
69.431168
20
29.131453
70
0
0
VERTEX
8
Layer 1
10
67.920308
20
29.044008
70
0
0
VERTEX
8
Layer 1
10
66.374325
20
29.264240
70
0
0
VERTEX
8
Layer 1
10
64.829185
20
29.839279
70
0
0
VERTEX
8
Layer 1
10
63.672693
20
30.552859
70
0
0
VERTEX
8
Layer 1
10
63.539872
20
30.459726
70
0
0
VERTEX
8
Layer 1
10
62.013509
20
29.616512
70
0
0
VERTEX
8
Layer 1
10
60.397552
20
29.098810
70
0
0
VERTEX
8
Layer 1
10
58.718889
20
28.903916
70
0
0
VERTEX
8
Layer 1
10
57.004407
20
29.029125
70
0
0
VERTEX
8
Layer 1
10
54.956270
20
29.618583
70
0
0
VERTEX
8
Layer 1
10
53.959834
20
30.127959
70
0
0
VERTEX
8
Layer 1
10
53.021639
20
30.800773
70
0
0
VERTEX
8
Layer 1
10
51.578736
20
30.331932
70
0
0
VERTEX
8
Layer 1
10
50.012008
20
30.336959
70
0
0
VERTEX
8
Layer 1
10
46.628785
20
30.894965
70
0
0
VERTEX
8
Layer 1
10
45.630265
20
31.170805
70
0
0
VERTEX
8
Layer 1
10
44.721538
20
31.644363
70
0
0
VERTEX
8
Layer 1
10
43.931279
20
32.296663
70
0
0
VERTEX
8
Layer 1
10
43.288160
20
33.108731
70
0
0
VERTEX
8
Layer 1
10
42.751321
20
34.271044
70
0
0
VERTEX
8
Layer 1
10
41.202882
20
34.411273
70
0
0
VERTEX
8
Layer 1
10
39.653054
20
34.815820
70
0
0
VERTEX
8
Layer 1
10
38.079811
20
34.388916
70
0
0
VERTEX
8
Layer 1
10
36.402387
20
34.243792
70
0
0
VERTEX
8
Layer 1
10
34.488729
20
34.419396
70
0
0
VERTEX
8
Layer 1
10
32.680068
20
34.945367
70
0
0
VERTEX
8
Layer 1
10
31.005105
20
35.820438
70
0
0
VERTEX
8
Layer 1
10
29.492538
20
37.043344
70
0
0
VERTEX
8
Layer 1
10
29.461317
20
37.074301
70
0
0
VERTEX
8
Layer 1
10
28.498235
20
38.199043
70
0
0
VERTEX
8
Layer 1
10
25.456218
20
37.528854
70
0
0
VERTEX
8
Layer 1
10
24.519208
20
37.414886
70
0
0
VERTEX
8
Layer 1
10
23.602987
20
37.479117
70
0
0
VERTEX
8
Layer 1
10
22.728410
20
37.709248
70
0
0
VERTEX
8
Layer 1
10
21.916329
20
38.092978
70
0
0
VERTEX
8
Layer 1
10
21.187600
20
38.618009
70
0
0
VERTEX
8
Layer 1
10
20.563076
20
39.272039
70
0
0
VERTEX
8
Layer 1
10
20.063610
20
40.042768
70
0
0
VERTEX
8
Layer 1
10
19.710058
20
40.917898
70
0
0
VERTEX
8
Layer 1
10
17.575058
20
48.100533
70
0
0
VERTEX
8
Layer 1
10
15.945438
20
48.202133
70
0
0
VERTEX
8
Layer 1
10
13.730059
20
48.780511
70
0
0
VERTEX
8
Layer 1
10
12.255458
20
49.544751
70
0
0
VERTEX
8
Layer 1
10
11.146280
20
50.722087
70
0
0
VERTEX
8
Layer 1
10
10.480401
20
52.196187
70
0
0
VERTEX
8
Layer 1
10
10.335697
20
53.850715
70
0
0
VERTEX
8
Layer 1
10
10.608304
20
56.167081
70
0
0
VERTEX
8
Layer 1
10
11.090192
20
58.446191
70
0
0
VERTEX
8
Layer 1
10
11.851513
20
60.587486
70
0
0
VERTEX
8
Layer 1
10
12.962424
20
62.490408
70
0
0
VERTEX
8
Layer 1
10
14.051258
20
63.702165
70
0
0
VERTEX
8
Layer 1
10
15.307946
20
64.668059
70
0
0
VERTEX
8
Layer 1
10
16.708133
20
65.386898
70
0
0
VERTEX
8
Layer 1
10
18.227467
20
65.857492
70
0
0
VERTEX
8
Layer 1
10
18.420745
20
65.897708
70
0
0
VERTEX
8
Layer 1
10
19.960184
20
66.057756
70
0
0
VERTEX
8
Layer 1
10
21.535078
20
65.913252
70
0
0
VERTEX
8
Layer 1
10
23.093533
20
65.416027
70
0
0
VERTEX
8
Layer 1
10
24.583650
20
64.517908
70
0
0
VERTEX
8
Layer 1
10
24.639477
20
64.473722
70
0
0
VERTEX
8
Layer 1
10
25.626557
20
65.849943
70
0
0
VERTEX
8
Layer 1
10
26.856067
20
66.964176
70
0
0
VERTEX
8
Layer 1
10
28.300615
20
67.797720
70
0
0
VERTEX
8
Layer 1
10
29.932804
20
68.331872
70
0
0
VERTEX
8
Layer 1
10
30.100814
20
68.367061
70
0
0
VERTEX
8
Layer 1
10
30.100814
20
68.367061
70
0
0
SEQEND
8
Layer 1
0
POLYLINE
8
Layer 1
62
7
70
1
10
0.000000
20
0.000000
66
1
0
VERTEX
8
Layer 1
10
126.719117
20
38.081568
70
0
0
VERTEX
8
Layer 1
10
125.656440
20
37.917704
70
0
0
VERTEX
8
Layer 1
10
124.735373
20
38.002756
70
0
0
VERTEX
8
Layer 1
10
123.955941
20
38.336696
70
0
0
VERTEX
8
Layer 1
10
123.318168
20
38.919503
70
0
0
VERTEX
8
Layer 1
10
122.806749
20
38.032744
70
0
0
VERTEX
8
Layer 1
10
122.152779
20
37.325919
70
0
0
VERTEX
8
Layer 1
10
121.356280
20
36.799077
70
0
0
VERTEX
8
Layer 1
10
120.417280
20
36.452266
70
0
0
VERTEX
8
Layer 1
10
119.436652
20
36.294314
70
0
0
VERTEX
8
Layer 1
10
118.490652
20
36.328077
70
0
0
VERTEX
8
Layer 1
10
117.579280
20
36.553581
70
0
0
VERTEX
8
Layer 1
10
116.702534
20
36.970849
70
0
0
VERTEX
8
Layer 1
10
115.926595
20
37.563482
70
0
0
VERTEX
8
Layer 1
10
115.293034
20
38.308713
70
0
0
VERTEX
8
Layer 1
10
114.801853
20
39.206542
70
0
0
VERTEX
8
Layer 1
10
114.453050
20
40.256970
70
0
0
VERTEX
8
Layer 1
10
114.188194
20
41.844273
70
0
0
VERTEX
8
Layer 1
10
114.201299
20
43.326033
70
0
0
VERTEX
8
Layer 1
10
114.492415
20
44.702274
70
0
0
VERTEX
8
Layer 1
10
115.061590
20
45.973021
70
0
0
VERTEX
8
Layer 1
10
115.862983
20
47.084815
70
0
0
VERTEX
8
Layer 1
10
116.850734
20
47.984579
70
0
0
VERTEX
8
Layer 1
10
118.024866
20
48.672313
70
0
0
VERTEX
8
Layer 1
10
119.385406
20
49.148017
70
0
0
VERTEX
8
Layer 1
10
119.533308
20
49.185588
70
0
0
VERTEX
8
Layer 1
10
120.742187
20
49.380089
70
0
0
VERTEX
8
Layer 1
10
121.905030
20
49.336664
70
0
0
VERTEX
8
Layer 1
10
122.559443
20
49.842216
70
0
0
VERTEX
8
Layer 1
10
123.401776
20
50.169572
70
0
0
VERTEX
8
Layer 1
10
124.242554
20
50.316878
70
0
0
VERTEX
8
Layer 1
10
124.843224
20
50.270113
70
0
0
VERTEX
8
Layer 1
10
125.275288
20
46.495308
70
0
0
VERTEX
8
Layer 1
10
125.553365
20
43.878317
70
0
0
VERTEX
8
Layer 1
10
125.935952
20
41.367954
70
0
0
VERTEX
8
Layer 1
10
126.317943
20
40.666974
70
0
0
VERTEX
8
Layer 1
10
126.610589
20
40.541847
70
0
0
VERTEX
8
Layer 1
10
126.971000
20
40.567061
70
0
0
VERTEX
8
Layer 1
10
127.554604
20
40.934897
70
0
0
VERTEX
8
Layer 1
10
128.073518
20
41.725405
70
0
0
VERTEX
8
Layer 1
10
128.451971
20
42.979132
70
0
0
VERTEX
8
Layer 1
10
128.627025
20
44.686883
70
0
0
VERTEX
8
Layer 1
10
129.400368
20
44.151698
70
0
0
VERTEX
8
Layer 1
10
129.970313
20
43.485147
70
0
0
VERTEX
8
Layer 1
10
129.632143
20
41.243798
70
0
0
VERTEX
8
Layer 1
10
129.305834
20
40.362588
70
0
0
VERTEX
8
Layer 1
10
128.874675
20
39.641020
70
0
0
VERTEX
8
Layer 1
10
127.849383
20
38.621781
70
0
0
VERTEX
8
Layer 1
10
126.719117
20
38.081568
70
0
0
VERTEX
8
Layer 1
10
126.719117
20
38.081568
70
0
0
SEQEND
8
Layer 1
0
POLYLINE
8
Layer 1
62
7
70
1
10
0.000000
20
0.000000
66
1
0
VERTEX
8
Layer 1
10
120.236040
20
47.289057
70
0
0
VERTEX
8
Layer 1
10
119.506428
20
47.021956
70
0
0
VERTEX
8
Layer 1
10
118.894737
20
46.621877
70
0
0
VERTEX
8
Layer 1
10
118.400917
20
46.088796
70
0
0
VERTEX
8
Layer 1
10
118.024920
20
45.422688
70
0
0
VERTEX
8
Layer 1
10
117.781797
20
44.642495
70
0
0
VERTEX
8
Layer 1
10
117.668031
20
43.735475
70
0
0
VERTEX
8
Layer 1
10
117.828864
20
41.541255
70
0
0
VERTEX
8
Layer 1
10
117.909033
20
41.109191
70
0
0
VERTEX
8
Layer 1
10
118.321948
20
40.043583
70
0
0
VERTEX
8
Layer 1
10
118.956517
20
39.300237
70
0
0
VERTEX
8
Layer 1
10
119.762172
20
38.926349
70
0
0
VERTEX
8
Layer 1
10
120.638471
20
38.956280
70
0
0
VERTEX
8
Layer 1
10
121.332662
20
39.280873
70
0
0
VERTEX
8
Layer 1
10
121.862696
20
39.859764
70
0
0
VERTEX
8
Layer 1
10
122.228623
20
40.692953
70
0
0
VERTEX
8
Layer 1
10
122.430492
20
41.780439
70
0
0
VERTEX
8
Layer 1
10
121.689924
20
47.339327
70
0
0
VERTEX
8
Layer 1
10
120.236040
20
47.289057
70
0
0
VERTEX
8
Layer 1
10
120.236040
20
47.289057
70
0
0
SEQEND
8
Layer 1
0
POLYLINE
8
Layer 1
62
7
70
1
10
0.000000
20
0.000000
66
1
0
VERTEX
8
Layer 1
10
91.240654
20
37.351055
70
0
0
VERTEX
8
Layer 1
10
93.190631
20
42.736112
70
0
0
VERTEX
8
Layer 1
10
93.256512
20
43.377858
70
0
0
VERTEX
8
Layer 1
10
93.122368
20
43.950548
70
0
0
VERTEX
8
Layer 1
10
92.755458
20
44.402721
70
0
0
VERTEX
8
Layer 1
10
92.123832
20
44.682649
70
0
0
VERTEX
8
Layer 1
10
91.376914
20
44.705668
70
0
0
VERTEX
8
Layer 1
10
90.664127
20
44.387375
70
0
0
VERTEX
8
Layer 1
10
90.042192
20
43.800166
70
0
0
VERTEX
8
Layer 1
10
89.506577
20
42.978206
70
0
0
VERTEX
8
Layer 1
10
87.962470
20
38.926911
70
0
0
VERTEX
8
Layer 1
10
86.645905
20
35.482834
70
0
0
VERTEX
8
Layer 1
10
83.368251
20
36.313889
70
0
0
VERTEX
8
Layer 1
10
90.141047
20
54.629383
70
0
0
VERTEX
8
Layer 1
10
91.595195
20
54.473543
70
0
0
VERTEX
8
Layer 1
10
92.418453
20
54.188335
70
0
0
VERTEX
8
Layer 1
10
92.966132
20
53.820056
70
0
0
VERTEX
8
Layer 1
10
93.238181
20
53.368682
70
0
0
VERTEX
8
Layer 1
10
93.234551
20
52.834187
70
0
0
VERTEX
8
Layer 1
10
93.197774
20
52.683904
70
0
0
VERTEX
8
Layer 1
10
90.613857
20
45.996304
70
0
0
VERTEX
8
Layer 1
10
91.417635
20
46.351263
70
0
0
VERTEX
8
Layer 1
10
92.227615
20
46.545016
70
0
0
VERTEX
8
Layer 1
10
93.043845
20
46.577589
70
0
0
VERTEX
8
Layer 1
10
93.866375
20
46.449006
70
0
0
VERTEX
8
Layer 1
10
95.292709
20
45.861234
70
0
0
VERTEX
8
Layer 1
10
96.269583
20
44.935326
70
0
0
VERTEX
8
Layer 1
10
96.753968
20
43.788293
70
0
0
VERTEX
8
Layer 1
10
96.702176
20
42.537675
70
0
0
VERTEX
8
Layer 1
10
96.234658
20
41.272968
70
0
0
VERTEX
8
Layer 1
10
94.586041
20
37.008684
70
0
0
VERTEX
8
Layer 1
10
94.560277
20
36.077418
70
0
0
VERTEX
8
Layer 1
10
94.744803
20
35.796183
70
0
0
VERTEX
8
Layer 1
10
95.060968
20
35.637880
70
0
0
VERTEX
8
Layer 1
10
95.772564
20
35.683520
70
0
0
VERTEX
8
Layer 1
10
96.625447
20
36.145879
70
0
0
VERTEX
8
Layer 1
10
97.562865
20
37.085314
70
0
0
VERTEX
8
Layer 1
10
98.466151
20
38.525803
70
0
0
VERTEX
8
Layer 1
10
98.939490
20
37.547871
70
0
0
VERTEX
8
Layer 1
10
99.126286
20
36.841997
70
0
0
VERTEX
8
Layer 1
10
97.894342
20
35.129086
70
0
0
VERTEX
8
Layer 1
10
96.549611
20
34.023394
70
0
0
VERTEX
8
Layer 1
10
95.834958
20
33.698255
70
0
0
VERTEX
8
Layer 1
10
95.092118
20
33.524920
70
0
0
VERTEX
8
Layer 1
10
93.521888
20
33.633663
70
0
0
VERTEX
8
Layer 1
10
92.249509
20
34.208933
70
0
0
VERTEX
8
Layer 1
10
91.805009
20
34.637508
70
0
0
VERTEX
8
Layer 1
10
91.488303
20
35.160043
70
0
0
VERTEX
8
Layer 1
10
91.173483
20
36.277377
70
0
0
VERTEX
8
Layer 1
10
91.240654
20
37.351055
70
0
0
VERTEX
8
Layer 1
10
91.240654
20
37.351055
70
0
0
SEQEND
8
Layer 1
0
POLYLINE
8
Layer 1
62
7
70
1
10
0.000000
20
0.000000
66
1
0
VERTEX
8
Layer 1
10
82.534815
20
44.157981
70
0
0
VERTEX
8
Layer 1
10
83.698451
20
43.217918
70
0
0
VERTEX
8
Layer 1
10
83.669115
20
41.854886
70
0
0
VERTEX
8
Layer 1
10
83.439159
20
40.655167
70
0
0
VERTEX
8
Layer 1
10
83.048569
20
39.659740
70
0
0
VERTEX
8
Layer 1
10
82.537725
20
38.909184
70
0
0
VERTEX
8
Layer 1
10
81.506744
20
37.989956
70
0
0
VERTEX
8
Layer 1
10
80.423972
20
37.433869
70
0
0
VERTEX
8
Layer 1
10
79.498510
20
37.199672
70
0
0
VERTEX
8
Layer 1
10
78.650538
20
37.147987
70
0
0
VERTEX
8
Layer 1
10
77.880056
20
37.278865
70
0
0
VERTEX
8
Layer 1
10
77.187063
20
37.592354
70
0
0
VERTEX
8
Layer 1
10
76.049621
20
38.697484
70
0
0
VERTEX
8
Layer 1
10
75.221741
20
40.328672
70
0
0
VERTEX
8
Layer 1
10
74.276452
20
42.790749
70
0
0
VERTEX
8
Layer 1
10
73.603022
20
44.052677
70
0
0
VERTEX
8
Layer 1
10
72.932668
20
44.485866
70
0
0
VERTEX
8
Layer 1
10
71.997003
20
44.462252
70
0
0
VERTEX
8
Layer 1
10
71.564939
20
46.356402
70
0
0
VERTEX
8
Layer 1
10
72.175861
20
46.780263
70
0
0
VERTEX
8
Layer 1
10
72.642321
20
47.481673
70
0
0
VERTEX
8
Layer 1
10
72.864372
20
48.102339
70
0
0
VERTEX
8
Layer 1
10
72.951089
20
48.952721
70
0
0
VERTEX
8
Layer 1
10
72.718521
20
51.342733
70
0
0
VERTEX
8
Layer 1
10
72.613878
20
53.279315
70
0
0
VERTEX
8
Layer 1
10
72.752677
20
54.077558
70
0
0
VERTEX
8
Layer 1
10
73.018823
20
54.762468
70
0
0
VERTEX
8
Layer 1
10
73.815151
20
55.806446
70
0
0
VERTEX
8
Layer 1
10
74.835714
20
56.409497
70
0
0
VERTEX
8
Layer 1
10
75.958472
20
56.598211
70
0
0
VERTEX
8
Layer 1
10
77.060592
20
56.399178
70
0
0
VERTEX
8
Layer 1
10
77.565471
20
56.144526
70
0
0
VERTEX
8
Layer 1
10
77.995860
20
55.749230
70
0
0
VERTEX
8
Layer 1
10
78.633274
20
54.536514
70
0
0
VERTEX
8
Layer 1
10
78.857653
20
53.548040
70
0
0
VERTEX
8
Layer 1
10
78.882280
20
52.566958
70
0
0
VERTEX
8
Layer 1
10
78.707130
20
51.593218
70
0
0
VERTEX
8
Layer 1
10
78.332178
20
50.626771
70
0
0
VERTEX
8
Layer 1
10
77.107424
20
48.683277
70
0
0
VERTEX
8
Layer 1
10
75.284182
20
46.687395
70
0
0
VERTEX
8
Layer 1
10
76.219682
20
46.384414
70
0
0
VERTEX
8
Layer 1
10
77.018259
20
45.722461
70
0
0
VERTEX
8
Layer 1
10
77.665892
20
44.825954
70
0
0
VERTEX
8
Layer 1
10
78.148822
20
43.819315
70
0
0
VERTEX
8
Layer 1
10
78.901826
20
41.761653
70
0
0
VERTEX
8
Layer 1
10
79.360323
20
40.774081
70
0
0
VERTEX
8
Layer 1
10
79.870266
20
40.130301
70
0
0
VERTEX
8
Layer 1
10
80.431702
20
39.830313
70
0
0
VERTEX
8
Layer 1
10
81.044683
20
39.874118
70
0
0
VERTEX
8
Layer 1
10
81.698290
20
40.331020
70
0
0
VERTEX
8
Layer 1
10
82.164498
20
41.197298
70
0
0
VERTEX
8
Layer 1
10
82.443331
20
42.472951
70
0
0
VERTEX
8
Layer 1
10
82.534815
20
44.157981
70
0
0
VERTEX
8
Layer 1
10
82.534815
20
44.157981
70
0
0
SEQEND
8
Layer 1
0
POLYLINE
8
Layer 1
62
7
70
1
10
0.000000
20
0.000000
66
1
0
VERTEX
8
Layer 1
10
69.287673
20
33.674145
70
0
0
VERTEX
8
Layer 1
10
68.072609
20
33.481462
70
0
0
VERTEX
8
Layer 1
10
66.982361
20
33.766219
70
0
0
VERTEX
8
Layer 1
10
66.111619
20
34.464950
70
0
0
VERTEX
8
Layer 1
10
65.554407
20
35.514319
70
0
0
VERTEX
8
Layer 1
10
65.369067
20
36.986885
70
0
0
VERTEX
8
Layer 1
10
65.750066
20
38.538404
70
0
0
VERTEX
8
Layer 1
10
66.697406
20
40.168950
70
0
0
VERTEX
8
Layer 1
10
68.211085
20
41.878599
70
0
0
VERTEX
8
Layer 1
10
67.355953
20
46.132035
70
0
0
VERTEX
8
Layer 1
10
66.012929
20
52.696075
70
0
0
VERTEX
8
Layer 1
10
66.863035
20
53.513636
70
0
0
VERTEX
8
Layer 1
10
67.853633
20
54.024811
70
0
0
VERTEX
8
Layer 1
10
69.532677
20
54.455816
70
0
0
VERTEX
8
Layer 1
10
72.273757
20
40.013289
70
0
0
VERTEX
8
Layer 1
10
72.404577
20
37.725167
70
0
0
VERTEX
8
Layer 1
10
72.250651
20
36.756924
70
0
0
VERTEX
8
Layer 1
10
71.950503
20
35.905902
70
0
0
VERTEX
8
Layer 1
10
71.504130
20
35.172107
70
0
0
VERTEX
8
Layer 1
10
70.911535
20
34.555545
70
0
0
VERTEX
8
Layer 1
10
70.172716
20
34.056222
70
0
0
VERTEX
8
Layer 1
10
69.287673
20
33.674145
70
0
0
VERTEX
8
Layer 1
10
69.287673
20
33.674145
70
0
0
SEQEND
8
Layer 1
0
POLYLINE
8
Layer 1
62
7
70
1
10
0.000000
20
0.000000
66
1
0
VERTEX
8
Layer 1
10
77.130178
20
53.403305
70
0
0
VERTEX
8
Layer 1
10
76.729070
20
53.893577
70
0
0
VERTEX
8
Layer 1
10
76.279279
20
53.959194
70
0
0
VERTEX
8
Layer 1
10
75.981888
20
53.804413
70
0
0
VERTEX
8
Layer 1
10
75.845098
20
53.567876
70
0
0
VERTEX
8
Layer 1
10
75.796680
20
53.306732
70
0
0
VERTEX
8
Layer 1
10
75.780275
20
52.947693
70
0
0
VERTEX
8
Layer 1
10
75.812025
20
52.523037
70
0
0
VERTEX
8
Layer 1
10
75.859650
20
52.049699
70
0
0
VERTEX
8
Layer 1
10
75.931088
20
51.176045
70
0
0
VERTEX
8
Layer 1
10
75.970246
20
50.074057
70
0
0
VERTEX
8
Layer 1
10
76.639827
20
51.034597
70
0
0
VERTEX
8
Layer 1
10
77.056326
20
51.909635
70
0
0
VERTEX
8
Layer 1
10
77.219768
20
52.699196
70
0
0
VERTEX
8
Layer 1
10
77.130178
20
53.403305
70
0
0
VERTEX
8
Layer 1
10
77.130178
20
53.403305
70
0
0
SEQEND
8
Layer 1
0
POLYLINE
8
Layer 1
62
7
70
1
10
0.000000
20
0.000000
66
1
0
VERTEX
8
Layer 1
10
67.233980
20
36.435068
70
0
0
VERTEX
8
Layer 1
10
67.655130
20
35.842898
70
0
0
VERTEX
8
Layer 1
10
68.341789
20
35.829967
70
0
0
VERTEX
8
Layer 1
10
68.649400
20
36.056152
70
0
0
VERTEX
8
Layer 1
10
68.896884
20
36.506770
70
0
0
VERTEX
8
Layer 1
10
69.028018
20
37.210660
70
0
0
VERTEX
8
Layer 1
10
68.954563
20
38.131045
70
0
0
VERTEX
8
Layer 1
10
68.650822
20
39.715104
70
0
0
VERTEX
8
Layer 1
10
67.883763
20
38.730218
70
0
0
VERTEX
8
Layer 1
10
67.391936
20
37.855217
70
0
0
VERTEX
8
Layer 1
10
67.175342
20
37.090151
70
0
0
VERTEX
8
Layer 1
10
67.233980
20
36.435068
70
0
0
VERTEX
8
Layer 1
10
67.233980
20
36.435068
70
0
0
SEQEND
8
Layer 1
0
POLYLINE
8
Layer 1
62
7
70
1
10
0.000000
20
0.000000
66
1
0
VERTEX
8
Layer 1
10
55.191220
20
36.921372
70
0
0
VERTEX
8
Layer 1
10
56.714424
20
42.500104
70
0
0
VERTEX
8
Layer 1
10
56.729043
20
43.145025
70
0
0
VERTEX
8
Layer 1
10
56.549589
20
43.705015
70
0
0
VERTEX
8
Layer 1
10
56.135418
20
44.127521
70
0
0
VERTEX
8
Layer 1
10
55.446013
20
44.360917
70
0
0
VERTEX
8
Layer 1
10
54.670587
20
44.301121
70
0
0
VERTEX
8
Layer 1
10
53.947945
20
43.853182
70
0
0
VERTEX
8
Layer 1
10
53.365531
20
43.120188
70
0
0
VERTEX
8
Layer 1
10
52.952583
20
42.162761
70
0
0
VERTEX
8
Layer 1
10
50.768451
20
34.732741
70
0
0
VERTEX
8
Layer 1
10
47.385228
20
35.300007
70
0
0
VERTEX
8
Layer 1
10
50.710507
20
47.064426
70
0
0
VERTEX
8
Layer 1
10
52.359917
20
47.075803
70
0
0
VERTEX
8
Layer 1
10
53.086595
20
46.873781
70
0
0
VERTEX
8
Layer 1
10
53.587450
20
46.549448
70
0
0
VERTEX
8
Layer 1
10
53.862484
20
46.102728
70
0
0
VERTEX
8
Layer 1
10
53.911697
20
45.533548
70
0
0
VERTEX
8
Layer 1
10
54.642243
20
45.960536
70
0
0
VERTEX
8
Layer 1
10
55.407517
20
46.224705
70
0
0
VERTEX
8
Layer 1
10
56.207516
20
46.326057
70
0
0
VERTEX
8
Layer 1
10
57.042243
20
46.264591
70
0
0
VERTEX
8
Layer 1
10
58.548381
20
45.789797
70
0
0
VERTEX
8
Layer 1
10
59.608433
20
44.945116
70
0
0
VERTEX
8
Layer 1
10
60.182248
20
43.841606
70
0
0
VERTEX
8
Layer 1
10
60.230203
20
42.590856
70
0
0
VERTEX
8
Layer 1
10
59.860845
20
41.266354
70
0
0
VERTEX
8
Layer 1
10
58.552747
20
36.854961
70
0
0
VERTEX
8
Layer 1
10
58.604341
20
35.943738
70
0
0
VERTEX
8
Layer 1
10
58.811410
20
35.683388
70
0
0
VERTEX
8
Layer 1
10
59.139328
20
35.553213
70
0
0
VERTEX
8
Layer 1
10
59.976431
20
35.645040
70
0
0
VERTEX
8
Layer 1
10
60.783546
20
36.206270
70
0
0
VERTEX
8
Layer 1
10
61.560646
20
37.236903
70
0
0
VERTEX
8
Layer 1
10
62.307709
20
38.736940
70
0
0
VERTEX
8
Layer 1
10
62.857347
20
37.801143
70
0
0
VERTEX
8
Layer 1
10
63.099606
20
37.113194
70
0
0
VERTEX
8
Layer 1
10
61.995005
20
35.283847
70
0
0
VERTEX
8
Layer 1
10
60.737012
20
34.055839
70
0
0
VERTEX
8
Layer 1
10
60.050494
20
33.667329
70
0
0
VERTEX
8
Layer 1
10
59.325627
20
33.429145
70
0
0
VERTEX
8
Layer 1
10
58.562413
20
33.341283
70
0
0
VERTEX
8
Layer 1
10
57.760850
20
33.403741
70
0
0
VERTEX
8
Layer 1
10
56.446799
20
33.872450
70
0
0
VERTEX
8
Layer 1
10
55.969557
20
34.263073
70
0
0
VERTEX
8
Layer 1
10
55.612172
20
34.757877
70
0
0
VERTEX
8
Layer 1
10
55.209609
20
35.845676
70
0
0
VERTEX
8
Layer 1
10
55.191220
20
36.921372
70
0
0
VERTEX
8
Layer 1
10
55.191220
20
36.921372
70
0
0
SEQEND
8
Layer 1
0
POLYLINE
8
Layer 1
62
7
70
1
10
0.000000
20
0.000000
66
1
0
VERTEX
8
Layer 1
10
42.864563
20
38.795149
70
0
0
VERTEX
8
Layer 1
10
41.794589
20
38.898386
70
0
0
VERTEX
8
Layer 1
10
40.921465
20
39.208096
70
0
0
VERTEX
8
Layer 1
10
40.245191
20
39.724281
70
0
0
VERTEX
8
Layer 1
10
39.765767
20
40.446940
70
0
0
VERTEX
8
Layer 1
10
39.057742
20
39.712975
70
0
0
VERTEX
8
Layer 1
10
38.254468
20
39.188683
70
0
0
VERTEX
8
Layer 1
10
37.355945
20
38.874089
70
0
0
VERTEX
8
Layer 1
10
36.362171
20
38.769219
70
0
0
VERTEX
8
Layer 1
10
35.373160
20
38.857966
70
0
0
VERTEX
8
Layer 1
10
34.463523
20
39.124191
70
0
0
VERTEX
8
Layer 1
10
33.633262
20
39.567867
70
0
0
VERTEX
8
Layer 1
10
32.882375
20
40.188972
70
0
0
VERTEX
8
Layer 1
10
32.271189
20
40.955241
70
0
0
VERTEX
8
Layer 1
10
31.834627
20
41.834447
70
0
0
VERTEX
8
Layer 1
10
31.572689
20
42.826612
70
0
0
VERTEX
8
Layer 1
10
31.485377
20
43.931763
70
0
0
VERTEX
8
Layer 1
10
31.607614
20
45.536967
70
0
0
VERTEX
8
Layer 1
10
31.974326
20
46.971193
70
0
0
VERTEX
8
Layer 1
10
32.585513
20
48.234416
70
0
0
VERTEX
8
Layer 1
10
33.441175
20
49.326610
70
0
0
VERTEX
8
Layer 1
10
34.484161
20
50.207428
70
0
0
VERTEX
8
Layer 1
10
35.657322
20
50.836552
70
0
0
VERTEX
8
Layer 1
10
36.960658
20
51.214009
70
0
0
VERTEX
8
Layer 1
10
38.394168
20
51.339822
70
0
0
VERTEX
8
Layer 1
10
38.546568
20
51.339822
70
0
0
VERTEX
8
Layer 1
10
39.765767
20
51.230120
70
0
0
VERTEX
8
Layer 1
10
40.883365
20
50.901144
70
0
0
VERTEX
8
Layer 1
10
41.639014
20
51.230120
70
0
0
VERTEX
8
Layer 1
10
42.534363
20
51.339822
70
0
0
VERTEX
8
Layer 1
10
43.385262
20
51.275330
70
0
0
VERTEX
8
Layer 1
10
43.956761
20
51.081854
70
0
0
VERTEX
8
Layer 1
10
43.474162
20
47.313134
70
0
0
VERTEX
8
Layer 1
10
43.118562
20
44.706197
70
0
0
VERTEX
8
Layer 1
10
42.889963
20
42.176519
70
0
0
VERTEX
8
Layer 1
10
43.093162
20
41.402019
70
0
0
VERTEX
8
Layer 1
10
43.347162
20
41.208394
70
0
0
VERTEX
8
Layer 1
10
43.702762
20
41.143852
70
0
0
VERTEX
8
Layer 1
10
44.356811
20
41.356907
70
0
0
VERTEX
8
Layer 1
10
45.048960
20
41.995809
70
0
0
VERTEX
8
Layer 1
10
45.715709
20
43.118567
70
0
0
VERTEX
8
Layer 1
10
46.293558
20
44.731862
70
0
0
VERTEX
8
Layer 1
10
46.915858
20
44.022052
70
0
0
VERTEX
8
Layer 1
10
47.309557
20
43.234851
70
0
0
VERTEX
8
Layer 1
10
46.445958
20
41.143951
70
0
0
VERTEX
8
Layer 1
10
45.918909
20
40.369579
70
0
0
VERTEX
8
Layer 1
10
45.328360
20
39.775958
70
0
0
VERTEX
8
Layer 1
10
44.090111
20
39.040285
70
0
0
VERTEX
8
Layer 1
10
42.864563
20
38.795149
70
0
0
VERTEX
8
Layer 1
10
42.864563
20
38.795149
70
0
0
SEQEND
8
Layer 1
0
POLYLINE
8
Layer 1
62
7
70
1
10
0.000000
20
0.000000
66
1
0
VERTEX
8
Layer 1
10
38.775168
20
49.326610
70
0
0
VERTEX
8
Layer 1
10
38.003644
20
49.247537
70
0
0
VERTEX
8
Layer 1
10
37.314670
20
49.010334
70
0
0
VERTEX
8
Layer 1
10
36.708245
20
48.615027
70
0
0
VERTEX
8
Layer 1
10
36.184371
20
48.061639
70
0
0
VERTEX
8
Layer 1
10
35.762097
20
47.364719
70
0
0
VERTEX
8
Layer 1
10
35.435072
20
46.512969
70
0
0
VERTEX
8
Layer 1
10
35.066772
20
44.344777
70
0
0
VERTEX
8
Layer 1
10
35.041373
20
43.905834
70
0
0
VERTEX
8
Layer 1
10
35.187422
20
42.770144
70
0
0
VERTEX
8
Layer 1
10
35.625572
20
41.892622
70
0
0
VERTEX
8
Layer 1
10
36.317721
20
41.331110
70
0
0
VERTEX
8
Layer 1
10
37.174970
20
41.143852
70
0
0
VERTEX
8
Layer 1
10
37.925856
20
41.287463
70
0
0
VERTEX
8
Layer 1
10
38.578318
20
41.718262
70
0
0
VERTEX
8
Layer 1
10
39.132355
20
42.436199
70
0
0
VERTEX
8
Layer 1
10
39.587967
20
43.441226
70
0
0
VERTEX
8
Layer 1
10
40.197566
20
49.016784
70
0
0
VERTEX
8
Layer 1
10
38.775168
20
49.326610
70
0
0
VERTEX
8
Layer 1
10
38.775168
20
49.326610
70
0
0
SEQEND
8
Layer 1
0
POLYLINE
8
Layer 1
62
7
70
1
10
0.000000
20
0.000000
66
1
0
VERTEX
8
Layer 1
10
30.945363
20
63.578903
70
0
0
VERTEX
8
Layer 1
10
32.025490
20
63.635689
70
0
0
VERTEX
8
Layer 1
10
32.933969
20
63.283893
70
0
0
VERTEX
8
Layer 1
10
33.622943
20
62.625445
70
0
0
VERTEX
8
Layer 1
10
34.005530
20
61.700099
70
0
0
VERTEX
8
Layer 1
10
34.119979
20
60.767597
70
0
0
VERTEX
8
Layer 1
10
34.047797
20
59.885820
70
0
0
VERTEX
8
Layer 1
10
33.788985
20
59.054794
70
0
0
VERTEX
8
Layer 1
10
33.343543
20
58.274543
70
0
0
VERTEX
8
Layer 1
10
32.041200
20
56.753852
70
0
0
VERTEX
8
Layer 1
10
30.288404
20
55.211730
70
0
0
VERTEX
8
Layer 1
10
28.480772
20
42.912854
70
0
0
VERTEX
8
Layer 1
10
24.362988
20
41.991047
70
0
0
VERTEX
8
Layer 1
10
20.324261
20
55.703590
70
0
0
VERTEX
8
Layer 1
10
19.474288
20
57.944872
70
0
0
VERTEX
8
Layer 1
10
19.156471
20
58.151346
70
0
0
VERTEX
8
Layer 1
10
18.703240
20
58.142516
70
0
0
VERTEX
8
Layer 1
10
18.105110
20
57.699645
70
0
0
VERTEX
8
Layer 1
10
17.625408
20
56.665481
70
0
0
VERTEX
8
Layer 1
10
17.264133
20
55.039974
70
0
0
VERTEX
8
Layer 1
10
17.021286
20
52.823075
70
0
0
VERTEX
8
Layer 1
10
15.173544
20
53.308320
70
0
0
VERTEX
8
Layer 1
10
15.414207
20
55.362629
70
0
0
VERTEX
8
Layer 1
10
15.772735
20
57.083291
70
0
0
VERTEX
8
Layer 1
10
16.249120
20
58.470231
70
0
0
VERTEX
8
Layer 1
10
16.843354
20
59.523375
70
0
0
VERTEX
8
Layer 1
10
17.884491
20
60.509740
70
0
0
VERTEX
8
Layer 1
10
19.240291
20
61.064306
70
0
0
VERTEX
8
Layer 1
10
20.498713
20
61.108194
70
0
0
VERTEX
8
Layer 1
10
21.545443
20
60.628802
70
0
0
VERTEX
8
Layer 1
10
22.008095
20
60.144264
70
0
0
VERTEX
8
Layer 1
10
22.455179
20
59.431597
70
0
0
VERTEX
8
Layer 1
10
23.302645
20
57.321779
70
0
0
VERTEX
8
Layer 1
10
24.830189
20
51.954713
70
0
0
VERTEX
8
Layer 1
10
26.335851
20
46.688189
70
0
0
VERTEX
8
Layer 1
10
26.484758
20
46.721526
70
0
0
VERTEX
8
Layer 1
10
27.957692
20
58.284597
70
0
0
VERTEX
8
Layer 1
10
28.292092
20
60.401327
70
0
0
VERTEX
8
Layer 1
10
28.674712
20
61.696130
70
0
0
VERTEX
8
Layer 1
10
29.063545
20
62.384559
70
0
0
VERTEX
8
Layer 1
10
29.571615
20
62.927830
70
0
0
VERTEX
8
Layer 1
10
30.198896
20
63.325945
70
0
0
VERTEX
8
Layer 1
10
30.945363
20
63.578903
70
0
0
VERTEX
8
Layer 1
10
30.945363
20
63.578903
70
0
0
SEQEND
8
Layer 1
0
POLYLINE
8
Layer 1
62
7
70
1
10
0.000000
20
0.000000
66
1
0
VERTEX
8
Layer 1
10
32.477299
20
60.591496
70
0
0
VERTEX
8
Layer 1
10
32.164032
20
61.076477
70
0
0
VERTEX
8
Layer 1
10
31.574541
20
61.155852
70
0
0
VERTEX
8
Layer 1
10
31.299507
20
60.955562
70
0
0
VERTEX
8
Layer 1
10
31.118930
20
60.498892
70
0
0
VERTEX
8
Layer 1
10
30.659349
20
57.699868
70
0
0
VERTEX
8
Layer 1
10
31.546864
20
58.539605
70
0
0
VERTEX
8
Layer 1
10
32.145677
20
59.301456
70
0
0
VERTEX
8
Layer 1
10
32.455814
20
59.985419
70
0
0
VERTEX
8
Layer 1
10
32.477299
20
60.591496
70
0
0
VERTEX
8
Layer 1
10
32.477299
20
60.591496
70
0
0
SEQEND
8
Layer 1
0
POLYLINE
8
Layer 1
62
255
70
1
10
0.000000
20
0.000000
66
1
0
VERTEX
8
Layer 1
10
111.657730
20
59.850399
70
0
0
VERTEX
8
Layer 1
10
110.555213
20
59.462256
70
0
0
VERTEX
8
Layer 1
10
109.315178
20
60.657443
70
0
0
VERTEX
8
Layer 1
10
107.685016
20
61.466472
70
0
0
VERTEX
8
Layer 1
10
105.790238
20
61.827066
70
0
0
VERTEX
8
Layer 1
10
103.777390
20
61.711211
70
0
0
VERTEX
8
Layer 1
10
101.802146
20
61.127905
70
0
0
VERTEX
8
Layer 1
10
100.016607
20
60.122126
70
0
0
VERTEX
8
Layer 1
10
98.558953
20
58.771330
70
0
0
VERTEX
8
Layer 1
10
97.541433
20
57.180227
70
0
0
VERTEX
8
Layer 1
10
97.042992
20
55.471550
70
0
0
VERTEX
8
Layer 1
10
97.101961
20
53.777161
70
0
0
VERTEX
8
Layer 1
10
97.713545
20
52.227829
70
0
0
VERTEX
8
Layer 1
10
98.830746
20
50.943212
70
0
0
VERTEX
8
Layer 1
10
100.367279
20
50.022629
70
0
0
VERTEX
8
Layer 1
10
102.204444
20
49.537218
70
0
0
VERTEX
8
Layer 1
10
104.200690
20
49.524088
70
0
0
VERTEX
8
Layer 1
10
106.201500
20
49.984628
70
0
0
VERTEX
8
Layer 1
10
114.076283
20
52.757987
70
0
0
VERTEX
8
Layer 1
10
115.658556
20
53.617518
70
0
0
VERTEX
8
Layer 1
10
116.300442
20
54.208576
70
0
0
VERTEX
8
Layer 1
10
116.815776
20
54.886028
70
0
0
VERTEX
8
Layer 1
10
117.177837
20
55.618617
70
0
0
VERTEX
8
Layer 1
10
117.371698
20
56.370603
70
0
0
VERTEX
8
Layer 1
10
117.394158
20
57.120010
70
0
0
VERTEX
8
Layer 1
10
117.242019
20
57.844860
70
0
0
VERTEX
8
Layer 1
10
116.920170
20
58.510104
70
0
0
VERTEX
8
Layer 1
10
116.446219
20
59.084762
70
0
0
VERTEX
8
Layer 1
10
115.836041
20
59.553554
70
0
0
VERTEX
8
Layer 1
10
115.105511
20
59.901199
70
0
0
VERTEX
8
Layer 1
10
114.288190
20
60.109471
70
0
0
VERTEX
8
Layer 1
10
113.424086
20
60.170181
70
0
0
VERTEX
8
Layer 1
10
111.657730
20
59.850399
70
0
0
VERTEX
8
Layer 1
10
111.657730
20
59.850399
70
0
0
SEQEND
8
Layer 1
0
POLYLINE
8
Layer 1
62
7
70
1
10
0.000000
20
0.000000
66
1
0
VERTEX
8
Layer 1
10
59.102815
20
63.756438
70
0
0
VERTEX
8
Layer 1
10
59.095837
20
64.162937
70
0
0
VERTEX
8
Layer 1
10
58.805688
20
64.447793
70
0
0
VERTEX
8
Layer 1
10
58.402232
20
64.444122
70
0
0
VERTEX
8
Layer 1
10
58.122006
20
64.154106
70
0
0
VERTEX
8
Layer 1
10
58.612278
20
63.955140
70
0
0
VERTEX
8
Layer 1
10
59.102815
20
63.756438
70
0
0
VERTEX
8
Layer 1
10
59.102815
20
63.756438
70
0
0
SEQEND
8
Layer 1
0
POLYLINE
8
Layer 1
62
7
70
1
10
0.000000
20
0.000000
66
1
0
VERTEX
8
Layer 1
10
57.648138
20
62.946814
70
0
0
VERTEX
8
Layer 1
10
57.655116
20
62.540315
70
0
0
VERTEX
8
Layer 1
10
57.945264
20
62.255459
70
0
0
VERTEX
8
Layer 1
10
58.348721
20
62.259163
70
0
0
VERTEX
8
Layer 1
10
58.628947
20
62.549410
70
0
0
VERTEX
8
Layer 1
10
58.138675
20
62.748112
70
0
0
VERTEX
8
Layer 1
10
57.648138
20
62.946814
70
0
0
VERTEX
8
Layer 1
10
57.648138
20
62.946814
70
0
0
SEQEND
8
Layer 1
0
POLYLINE
8
Layer 1
62
7
70
1
10
0.000000
20
0.000000
66
1
0
VERTEX
8
Layer 1
10
54.365457
20
51.685103
70
0
0
VERTEX
8
Layer 1
10
54.358577
20
52.091701
70
0
0
VERTEX
8
Layer 1
10
54.068330
20
52.376459
70
0
0
VERTEX
8
Layer 1
10
53.664874
20
52.372787
70
0
0
VERTEX
8
Layer 1
10
53.384647
20
52.082771
70
0
0
VERTEX
8
Layer 1
10
53.874920
20
51.884070
70
0
0
VERTEX
8
Layer 1
10
54.365457
20
51.685103
70
0
0
VERTEX
8
Layer 1
10
54.365457
20
51.685103
70
0
0
SEQEND
8
Layer 1
0
POLYLINE
8
Layer 1
62
7
70
1
10
0.000000
20
0.000000
66
1
0
VERTEX
8
Layer 1
10
52.910779
20
50.875479
70
0
0
VERTEX
8
Layer 1
10
52.917857
20
50.468980
70
0
0
VERTEX
8
Layer 1
10
53.207906
20
50.184124
70
0
0
VERTEX
8
Layer 1
10
53.611395
20
50.188026
70
0
0
VERTEX
8
Layer 1
10
53.891853
20
50.478075
70
0
0
VERTEX
8
Layer 1
10
53.401316
20
50.676777
70
0
0
VERTEX
8
Layer 1
10
52.910779
20
50.875479
70
0
0
VERTEX
8
Layer 1
10
52.910779
20
50.875479
70
0
0
SEQEND
8
Layer 1
0
POLYLINE
8
Layer 1
62
7
70
1
10
0.000000
20
0.000000
66
1
0
VERTEX
8
Layer 1
10
53.713524
20
64.089283
70
0
0
VERTEX
8
Layer 1
10
53.425129
20
64.375860
70
0
0
VERTEX
8
Layer 1
10
53.021639
20
64.374504
70
0
0
VERTEX
8
Layer 1
10
52.739726
20
64.086009
70
0
0
VERTEX
8
Layer 1
10
52.744356
20
63.679444
70
0
0
VERTEX
8
Layer 1
10
53.229073
20
63.884496
70
0
0
VERTEX
8
Layer 1
10
53.713524
20
64.089283
70
0
0
VERTEX
8
Layer 1
10
53.713524
20
64.089283
70
0
0
SEQEND
8
Layer 1
0
POLYLINE
8
Layer 1
62
7
70
1
10
0.000000
20
0.000000
66
1
0
VERTEX
8
Layer 1
10
53.251297
20
62.480619
70
0
0
VERTEX
8
Layer 1
10
53.539792
20
62.194175
70
0
0
VERTEX
8
Layer 1
10
53.943182
20
62.195663
70
0
0
VERTEX
8
Layer 1
10
54.225228
20
62.483926
70
0
0
VERTEX
8
Layer 1
10
54.220730
20
62.890458
70
0
0
VERTEX
8
Layer 1
10
53.736014
20
62.685671
70
0
0
VERTEX
8
Layer 1
10
53.251297
20
62.480619
70
0
0
VERTEX
8
Layer 1
10
53.251297
20
62.480619
70
0
0
SEQEND
8
Layer 1
0
POLYLINE
8
Layer 1
62
7
70
1
10
0.000000
20
0.000000
66
1
0
VERTEX
8
Layer 1
10
58.762297
20
52.151298
70
0
0
VERTEX
8
Layer 1
10
58.473901
20
52.437875
70
0
0
VERTEX
8
Layer 1
10
58.070412
20
52.436519
70
0
0
VERTEX
8
Layer 1
10
57.788400
20
52.148024
70
0
0
VERTEX
8
Layer 1
10
57.793129
20
51.741459
70
0
0
VERTEX
8
Layer 1
10
58.277581
20
51.946511
70
0
0
VERTEX
8
Layer 1
10
58.762297
20
52.151298
70
0
0
VERTEX
8
Layer 1
10
58.762297
20
52.151298
70
0
0
SEQEND
8
Layer 1
0
POLYLINE
8
Layer 1
62
7
70
1
10
0.000000
20
0.000000
66
1
0
VERTEX
8
Layer 1
10
58.300070
20
50.542634
70
0
0
VERTEX
8
Layer 1
10
58.588466
20
50.256156
70
0
0
VERTEX
8
Layer 1
10
58.991955
20
50.257413
70
0
0
VERTEX
8
Layer 1
10
59.274000
20
50.545908
70
0
0
VERTEX
8
Layer 1
10
59.269502
20
50.952473
70
0
0
VERTEX
8
Layer 1
10
58.784786
20
50.747686
70
0
0
VERTEX
8
Layer 1
10
58.300070
20
50.542634
70
0
0
VERTEX
8
Layer 1
10
58.300070
20
50.542634
70
0
0
SEQEND
8
Layer 1
0
POLYLINE
8
Layer 1
62
7
70
1
10
0.000000
20
0.000000
66
1
0
VERTEX
8
Layer 1
10
49.666992
20
60.456559
70
0
0
VERTEX
8
Layer 1
10
49.263734
20
60.452656
70
0
0
VERTEX
8
Layer 1
10
48.983309
20
60.162607
70
0
0
VERTEX
8
Layer 1
10
48.990287
20
59.756108
70
0
0
VERTEX
8
Layer 1
10
49.280436
20
59.471252
70
0
0
VERTEX
8
Layer 1
10
49.473846
20
59.963905
70
0
0
VERTEX
8
Layer 1
10
49.666992
20
60.456559
70
0
0
VERTEX
8
Layer 1
10
49.666992
20
60.456559
70
0
0
SEQEND
8
Layer 1
0
POLYLINE
8
Layer 1
62
7
70
1
10
0.000000
20
0.000000
66
1
0
VERTEX
8
Layer 1
10
50.468149
20
58.989711
70
0
0
VERTEX
8
Layer 1
10
50.871638
20
58.993613
70
0
0
VERTEX
8
Layer 1
10
51.152096
20
59.283662
70
0
0
VERTEX
8
Layer 1
10
51.145018
20
59.690161
70
0
0
VERTEX
8
Layer 1
10
50.854969
20
59.975018
70
0
0
VERTEX
8
Layer 1
10
50.661559
20
59.482364
70
0
0
VERTEX
8
Layer 1
10
50.468149
20
58.989711
70
0
0
VERTEX
8
Layer 1
10
50.468149
20
58.989711
70
0
0
SEQEND
8
Layer 1
0
POLYLINE
8
Layer 1
62
7
70
1
10
0.000000
20
0.000000
66
1
0
VERTEX
8
Layer 1
10
61.545445
20
55.642206
70
0
0
VERTEX
8
Layer 1
10
61.141989
20
55.638535
70
0
0
VERTEX
8
Layer 1
10
60.861763
20
55.348519
70
0
0
VERTEX
8
Layer 1
10
60.868642
20
54.941822
70
0
0
VERTEX
8
Layer 1
10
61.158890
20
54.657164
70
0
0
VERTEX
8
Layer 1
10
61.352035
20
55.149553
70
0
0
VERTEX
8
Layer 1
10
61.545445
20
55.642206
70
0
0
VERTEX
8
Layer 1
10
61.545445
20
55.642206
70
0
0
SEQEND
8
Layer 1
0
POLYLINE
8
Layer 1
62
7
70
1
10
0.000000
20
0.000000
66
1
0
VERTEX
8
Layer 1
10
62.346603
20
54.175623
70
0
0
VERTEX
8
Layer 1
10
62.750059
20
54.179294
70
0
0
VERTEX
8
Layer 1
10
63.030285
20
54.469310
70
0
0
VERTEX
8
Layer 1
10
63.023406
20
54.876007
70
0
0
VERTEX
8
Layer 1
10
62.733158
20
55.160665
70
0
0
VERTEX
8
Layer 1
10
62.540013
20
54.668276
70
0
0
VERTEX
8
Layer 1
10
62.346603
20
54.175623
70
0
0
VERTEX
8
Layer 1
10
62.346603
20
54.175623
70
0
0
SEQEND
8
Layer 1
0
POLYLINE
8
Layer 1
62
7
70
1
10
0.000000
20
0.000000
66
1
0
VERTEX
8
Layer 1
10
49.330442
20
54.980749
70
0
0
VERTEX
8
Layer 1
10
49.051803
20
54.688980
70
0
0
VERTEX
8
Layer 1
10
49.061097
20
54.282514
70
0
0
VERTEX
8
Layer 1
10
49.352865
20
53.999344
70
0
0
VERTEX
8
Layer 1
10
49.756156
20
54.005496
70
0
0
VERTEX
8
Layer 1
10
49.543431
20
54.493123
70
0
0
VERTEX
8
Layer 1
10
49.330442
20
54.980749
70
0
0
VERTEX
8
Layer 1
10
49.330442
20
54.980749
70
0
0
SEQEND
8
Layer 1
0
POLYLINE
8
Layer 1
62
7
70
1
10
0.000000
20
0.000000
66
1
0
VERTEX
8
Layer 1
10
50.935932
20
54.520639
70
0
0
VERTEX
8
Layer 1
10
51.214571
20
54.812408
70
0
0
VERTEX
8
Layer 1
10
51.205277
20
55.218874
70
0
0
VERTEX
8
Layer 1
10
50.913508
20
55.502044
70
0
0
VERTEX
8
Layer 1
10
50.510218
20
55.495892
70
0
0
VERTEX
8
Layer 1
10
50.722942
20
55.008266
70
0
0
VERTEX
8
Layer 1
10
50.935932
20
54.520639
70
0
0
VERTEX
8
Layer 1
10
50.935932
20
54.520639
70
0
0
SEQEND
8
Layer 1
0
POLYLINE
8
Layer 1
62
7
70
1
10
0.000000
20
0.000000
66
1
0
VERTEX
8
Layer 1
10
61.077663
20
60.111278
70
0
0
VERTEX
8
Layer 1
10
60.799123
20
59.819608
70
0
0
VERTEX
8
Layer 1
10
60.808317
20
59.413043
70
0
0
VERTEX
8
Layer 1
10
61.100218
20
59.129973
70
0
0
VERTEX
8
Layer 1
10
61.503641
20
59.136025
70
0
0
VERTEX
8
Layer 1
10
61.290652
20
59.623651
70
0
0
VERTEX
8
Layer 1
10
61.077663
20
60.111278
70
0
0
VERTEX
8
Layer 1
10
61.077663
20
60.111278
70
0
0
SEQEND
8
Layer 1
0
POLYLINE
8
Layer 1
62
7
70
1
10
0.000000
20
0.000000
66
1
0
VERTEX
8
Layer 1
10
62.683152
20
59.651433
70
0
0
VERTEX
8
Layer 1
10
62.961890
20
59.943102
70
0
0
VERTEX
8
Layer 1
10
62.952498
20
60.349667
70
0
0
VERTEX
8
Layer 1
10
62.660828
20
60.632837
70
0
0
VERTEX
8
Layer 1
10
62.257438
20
60.626686
70
0
0
VERTEX
8
Layer 1
10
62.470428
20
60.139059
70
0
0
VERTEX
8
Layer 1
10
62.683152
20
59.651433
70
0
0
VERTEX
8
Layer 1
10
62.683152
20
59.651433
70
0
0
SEQEND
8
Layer 1
0
POLYLINE
8
Layer 1
62
7
70
1
10
0.000000
20
0.000000
66
1
0
VERTEX
8
Layer 1
10
58.976344
20
56.112370
70
0
0
VERTEX
8
Layer 1
10
58.486072
20
56.311337
70
0
0
VERTEX
8
Layer 1
10
57.903808
20
55.405326
70
0
0
VERTEX
8
Layer 1
10
57.056332
20
54.818725
70
0
0
VERTEX
8
Layer 1
10
56.056158
20
54.598290
70
0
0
VERTEX
8
Layer 1
10
55.015802
20
54.790778
70
0
0
VERTEX
8
Layer 1
10
54.822391
20
54.298125
70
0
0
VERTEX
8
Layer 1
10
54.629246
20
53.805736
70
0
0
VERTEX
8
Layer 1
10
55.356198
20
53.593984
70
0
0
VERTEX
8
Layer 1
10
56.086887
20
53.535510
70
0
0
VERTEX
8
Layer 1
10
57.482145
20
53.843406
70
0
0
VERTEX
8
Layer 1
10
58.660362
20
54.659450
70
0
0
VERTEX
8
Layer 1
10
59.119750
20
55.236161
70
0
0
VERTEX
8
Layer 1
10
59.466881
20
55.913669
70
0
0
VERTEX
8
Layer 1
10
58.976344
20
56.112370
70
0
0
VERTEX
8
Layer 1
10
58.976344
20
56.112370
70
0
0
SEQEND
8
Layer 1
0
POLYLINE
8
Layer 1
62
7
70
1
10
0.000000
20
0.000000
66
1
0
VERTEX
8
Layer 1
10
54.822391
20
54.298125
70
0
0
VERTEX
8
Layer 1
10
55.015802
20
54.790778
70
0
0
VERTEX
8
Layer 1
10
54.130614
20
55.378628
70
0
0
VERTEX
8
Layer 1
10
53.554245
20
56.238014
70
0
0
VERTEX
8
Layer 1
10
53.336650
20
57.256299
70
0
0
VERTEX
8
Layer 1
10
53.527787
20
58.320845
70
0
0
VERTEX
8
Layer 1
10
53.037250
20
58.519547
70
0
0
VERTEX
8
Layer 1
10
52.546713
20
58.718248
70
0
0
VERTEX
8
Layer 1
10
52.339806
20
57.983944
70
0
0
VERTEX
8
Layer 1
10
52.282601
20
57.244257
70
0
0
VERTEX
8
Layer 1
10
52.584879
20
55.828208
70
0
0
VERTEX
8
Layer 1
10
53.388707
20
54.629052
70
0
0
VERTEX
8
Layer 1
10
53.958440
20
54.160480
70
0
0
VERTEX
8
Layer 1
10
54.629246
20
53.805736
70
0
0
VERTEX
8
Layer 1
10
54.822391
20
54.298125
70
0
0
VERTEX
8
Layer 1
10
54.822391
20
54.298125
70
0
0
SEQEND
8
Layer 1
0
POLYLINE
8
Layer 1
62
7
70
1
10
0.000000
20
0.000000
66
1
0
VERTEX
8
Layer 1
10
53.037250
20
58.519547
70
0
0
VERTEX
8
Layer 1
10
53.527787
20
58.320845
70
0
0
VERTEX
8
Layer 1
10
54.109935
20
59.226851
70
0
0
VERTEX
8
Layer 1
10
54.957395
20
59.813424
70
0
0
VERTEX
8
Layer 1
10
55.957552
20
60.033780
70
0
0
VERTEX
8
Layer 1
10
56.997793
20
59.841139
70
0
0
VERTEX
8
Layer 1
10
57.191203
20
60.333792
70
0
0
VERTEX
8
Layer 1
10
57.384349
20
60.826446
70
0
0
VERTEX
8
Layer 1
10
56.657472
20
61.038110
70
0
0
VERTEX
8
Layer 1
10
55.926819
20
61.096519
70
0
0
VERTEX
8
Layer 1
10
54.531548
20
60.788544
70
0
0
VERTEX
8
Layer 1
10
53.353269
20
59.972471
70
0
0
VERTEX
8
Layer 1
10
52.893855
20
59.395757
70
0
0
VERTEX
8
Layer 1
10
52.546713
20
58.718248
70
0
0
VERTEX
8
Layer 1
10
53.037250
20
58.519547
70
0
0
VERTEX
8
Layer 1
10
53.037250
20
58.519547
70
0
0
SEQEND
8
Layer 1
0
POLYLINE
8
Layer 1
62
7
70
1
10
0.000000
20
0.000000
66
1
0
VERTEX
8
Layer 1
10
57.191203
20
60.333792
70
0
0
VERTEX
8
Layer 1
10
56.997793
20
59.841139
70
0
0
VERTEX
8
Layer 1
10
57.882984
20
59.253293
70
0
0
VERTEX
8
Layer 1
10
58.459382
20
58.393936
70
0
0
VERTEX
8
Layer 1
10
58.677056
20
57.375729
70
0
0
VERTEX
8
Layer 1
10
58.486072
20
56.311337
70
0
0
VERTEX
8
Layer 1
10
58.976344
20
56.112370
70
0
0
VERTEX
8
Layer 1
10
59.466881
20
55.913669
70
0
0
VERTEX
8
Layer 1
10
59.673788
20
56.647985
70
0
0
VERTEX
8
Layer 1
10
59.730993
20
57.387702
70
0
0
VERTEX
8
Layer 1
10
59.428715
20
58.803841
70
0
0
VERTEX
8
Layer 1
10
58.624887
20
60.003088
70
0
0
VERTEX
8
Layer 1
10
58.055154
20
60.471691
70
0
0
VERTEX
8
Layer 1
10
57.384349
20
60.826446
70
0
0
VERTEX
8
Layer 1
10
57.191203
20
60.333792
70
0
0
VERTEX
8
Layer 1
10
57.191203
20
60.333792
70
0
0
SEQEND
8
Layer 1
0
POLYLINE
8
Layer 1
62
7
70
1
10
0.000000
20
0.000000
66
1
0
VERTEX
8
Layer 1
10
58.612278
20
63.955140
70
0
0
VERTEX
8
Layer 1
10
58.122006
20
64.154106
70
0
0
VERTEX
8
Layer 1
10
57.648138
20
62.946814
70
0
0
VERTEX
8
Layer 1
10
58.138675
20
62.748112
70
0
0
VERTEX
8
Layer 1
10
58.628947
20
62.549410
70
0
0
VERTEX
8
Layer 1
10
59.102815
20
63.756438
70
0
0
VERTEX
8
Layer 1
10
58.612278
20
63.955140
70
0
0
VERTEX
8
Layer 1
10
58.612278
20
63.955140
70
0
0
SEQEND
8
Layer 1
0
POLYLINE
8
Layer 1
62
7
70
1
10
0.000000
20
0.000000
66
1
0
VERTEX
8
Layer 1
10
53.874920
20
51.884070
70
0
0
VERTEX
8
Layer 1
10
53.384647
20
52.082771
70
0
0
VERTEX
8
Layer 1
10
52.910779
20
50.875479
70
0
0
VERTEX
8
Layer 1
10
53.401316
20
50.676777
70
0
0
VERTEX
8
Layer 1
10
53.891853
20
50.478075
70
0
0
VERTEX
8
Layer 1
10
54.365457
20
51.685103
70
0
0
VERTEX
8
Layer 1
10
53.874920
20
51.884070
70
0
0
VERTEX
8
Layer 1
10
53.874920
20
51.884070
70
0
0
SEQEND
8
Layer 1
0
POLYLINE
8
Layer 1
62
7
70
1
10
0.000000
20
0.000000
66
1
0
VERTEX
8
Layer 1
10
53.229073
20
63.884496
70
0
0
VERTEX
8
Layer 1
10
52.744356
20
63.679444
70
0
0
VERTEX
8
Layer 1
10
53.251297
20
62.480619
70
0
0
VERTEX
8
Layer 1
10
53.736014
20
62.685671
70
0
0
VERTEX
8
Layer 1
10
54.220730
20
62.890458
70
0
0
VERTEX
8
Layer 1
10
53.713524
20
64.089283
70
0
0
VERTEX
8
Layer 1
10
53.229073
20
63.884496
70
0
0
VERTEX
8
Layer 1
10
53.229073
20
63.884496
70
0
0
SEQEND
8
Layer 1
0
POLYLINE
8
Layer 1
62
7
70
1
10
0.000000
20
0.000000
66
1
0
VERTEX
8
Layer 1
10
58.277581
20
51.946511
70
0
0
VERTEX
8
Layer 1
10
57.793129
20
51.741459
70
0
0
VERTEX
8
Layer 1
10
58.300070
20
50.542634
70
0
0
VERTEX
8
Layer 1
10
58.784786
20
50.747686
70
0
0
VERTEX
8
Layer 1
10
59.269502
20
50.952473
70
0
0
VERTEX
8
Layer 1
10
58.762297
20
52.151298
70
0
0
VERTEX
8
Layer 1
10
58.277581
20
51.946511
70
0
0
VERTEX
8
Layer 1
10
58.277581
20
51.946511
70
0
0
SEQEND
8
Layer 1
0
POLYLINE
8
Layer 1
62
7
70
1
10
0.000000
20
0.000000
66
1
0
VERTEX
8
Layer 1
10
49.473846
20
59.963905
70
0
0
VERTEX
8
Layer 1
10
49.280436
20
59.471252
70
0
0
VERTEX
8
Layer 1
10
50.468149
20
58.989711
70
0
0
VERTEX
8
Layer 1
10
50.661559
20
59.482364
70
0
0
VERTEX
8
Layer 1
10
50.854969
20
59.975018
70
0
0
VERTEX
8
Layer 1
10
49.666992
20
60.456559
70
0
0
VERTEX
8
Layer 1
10
49.473846
20
59.963905
70
0
0
VERTEX
8
Layer 1
10
49.473846
20
59.963905
70
0
0
SEQEND
8
Layer 1
0
POLYLINE
8
Layer 1
62
7
70
1
10
0.000000
20
0.000000
66
1
0
VERTEX
8
Layer 1
10
61.352035
20
55.149553
70
0
0
VERTEX
8
Layer 1
10
61.158890
20
54.657164
70
0
0
VERTEX
8
Layer 1
10
62.346603
20
54.175623
70
0
0
VERTEX
8
Layer 1
10
62.540013
20
54.668276
70
0
0
VERTEX
8
Layer 1
10
62.733158
20
55.160665
70
0
0
VERTEX
8
Layer 1
10
61.545445
20
55.642206
70
0
0
VERTEX
8
Layer 1
10
61.352035
20
55.149553
70
0
0
VERTEX
8
Layer 1
10
61.352035
20
55.149553
70
0
0
SEQEND
8
Layer 1
0
POLYLINE
8
Layer 1
62
7
70
1
10
0.000000
20
0.000000
66
1
0
VERTEX
8
Layer 1
10
49.543431
20
54.493123
70
0
0
VERTEX
8
Layer 1
10
49.756156
20
54.005496
70
0
0
VERTEX
8
Layer 1
10
50.935932
20
54.520639
70
0
0
VERTEX
8
Layer 1
10
50.722942
20
55.008266
70
0
0
VERTEX
8
Layer 1
10
50.510218
20
55.495892
70
0
0
VERTEX
8
Layer 1
10
49.330442
20
54.980749
70
0
0
VERTEX
8
Layer 1
10
49.543431
20
54.493123
70
0
0
VERTEX
8
Layer 1
10
49.543431
20
54.493123
70
0
0
SEQEND
8
Layer 1
0
POLYLINE
8
Layer 1
62
7
70
1
10
0.000000
20
0.000000
66
1
0
VERTEX
8
Layer 1
10
61.290652
20
59.623651
70
0
0
VERTEX
8
Layer 1
10
61.503641
20
59.136025
70
0
0
VERTEX
8
Layer 1
10
62.683152
20
59.651433
70
0
0
VERTEX
8
Layer 1
10
62.470428
20
60.139059
70
0
0
VERTEX
8
Layer 1
10
62.257438
20
60.626686
70
0
0
VERTEX
8
Layer 1
10
61.077663
20
60.111278
70
0
0
VERTEX
8
Layer 1
10
61.290652
20
59.623651
70
0
0
VERTEX
8
Layer 1
10
61.290652
20
59.623651
70
0
0
SEQEND
8
Layer 1
0
POLYLINE
8
Layer 1
62
7
70
1
10
0.000000
20
0.000000
66
1
0
VERTEX
8
Layer 1
10
111.140206
20
31.767030
70
0
0
VERTEX
8
Layer 1
10
110.624269
20
31.632622
70
0
0
VERTEX
8
Layer 1
10
110.256499
20
31.898263
70
0
0
VERTEX
8
Layer 1
10
110.109390
20
32.408644
70
0
0
VERTEX
8
Layer 1
10
109.894549
20
33.026710
70
0
0
VERTEX
8
Layer 1
10
109.623351
20
33.456128
70
0
0
VERTEX
8
Layer 1
10
109.401102
20
32.856583
70
0
0
VERTEX
8
Layer 1
10
109.356123
20
32.650473
70
0
0
VERTEX
8
Layer 1
10
109.349773
20
32.343028
70
0
0
VERTEX
8
Layer 1
10
109.250951
20
31.994406
70
0
0
VERTEX
8
Layer 1
10
108.969567
20
31.716230
70
0
0
VERTEX
8
Layer 1
10
108.331128
20
31.577853
70
0
0
VERTEX
8
Layer 1
10
107.819689
20
31.951974
70
0
0
VERTEX
8
Layer 1
10
107.627602
20
32.534056
70
0
0
VERTEX
8
Layer 1
10
107.708366
20
32.851953
70
0
0
VERTEX
8
Layer 1
10
107.960976
20
33.155562
70
0
0
VERTEX
8
Layer 1
10
108.288266
20
33.469887
70
0
0
VERTEX
8
Layer 1
10
108.523480
20
33.850621
70
0
0
VERTEX
8
Layer 1
10
108.877757
20
34.637491
70
0
0
VERTEX
8
Layer 1
10
107.173313
20
37.417200
70
0
0
VERTEX
8
Layer 1
10
105.678419
20
34.472127
70
0
0
VERTEX
8
Layer 1
10
106.128739
20
33.679172
70
0
0
VERTEX
8
Layer 1
10
106.207850
20
33.554024
70
0
0
VERTEX
8
Layer 1
10
106.637003
20
33.151593
70
0
0
VERTEX
8
Layer 1
10
107.020913
20
32.820864
70
0
0
VERTEX
8
Layer 1
10
107.089176
20
32.157819
70
0
0
VERTEX
8
Layer 1
10
106.721670
20
31.590024
70
0
0
VERTEX
8
Layer 1
10
106.376422
20
31.453202
70
0
0
VERTEX
8
Layer 1
10
106.013910
20
31.482074
70
0
0
VERTEX
8
Layer 1
10
105.484744
20
31.844553
70
0
0
VERTEX
8
Layer 1
10
105.382880
20
32.283496
70
0
0
VERTEX
8
Layer 1
10
105.352188
20
32.490929
70
0
0
VERTEX
8
Layer 1
10
105.315146
20
32.668729
70
0
0
VERTEX
8
Layer 1
10
105.034159
20
33.193133
70
0
0
VERTEX
8
Layer 1
10
104.815085
20
32.747046
70
0
0
VERTEX
8
Layer 1
10
104.679883
20
32.406263
70
0
0
VERTEX
8
Layer 1
10
104.642841
20
32.028438
70
0
0
VERTEX
8
Layer 1
10
104.565715
20
31.675055
70
0
0
VERTEX
8
Layer 1
10
104.291739
20
31.395291
70
0
0
VERTEX
8
Layer 1
10
103.824221
20
31.343168
70
0
0
VERTEX
8
Layer 1
10
103.415970
20
31.632887
70
0
0
VERTEX
8
Layer 1
10
103.391628
20
32.147501
70
0
0
VERTEX
8
Layer 1
10
103.721828
20
32.615548
70
0
0
VERTEX
8
Layer 1
10
104.411596
20
33.545028
70
0
0
VERTEX
8
Layer 1
10
103.814961
20
33.459303
70
0
0
VERTEX
8
Layer 1
10
103.550378
20
33.362730
70
0
0
VERTEX
8
Layer 1
10
103.119240
20
33.163731
70
0
0
VERTEX
8
Layer 1
10
102.747633
20
33.167733
70
0
0
VERTEX
8
Layer 1
10
102.265034
20
33.535503
70
0
0
VERTEX
8
Layer 1
10
102.149146
20
33.857732
70
0
0
VERTEX
8
Layer 1
10
102.185659
20
34.216275
70
0
0
VERTEX
8
Layer 1
10
102.635185
20
34.812645
70
0
0
VERTEX
8
Layer 1
10
102.983145
20
34.925589
70
0
0
VERTEX
8
Layer 1
10
103.388453
20
34.848629
70
0
0
VERTEX
8
Layer 1
10
103.828719
20
34.706283
70
0
0
VERTEX
8
Layer 1
10
104.283537
20
34.699404
70
0
0
VERTEX
8
Layer 1
10
105.078345
20
34.788304
70
0
0
VERTEX
8
Layer 1
10
106.573239
20
37.733377
70
0
0
VERTEX
8
Layer 1
10
103.338447
20
37.544729
70
0
0
VERTEX
8
Layer 1
10
102.793935
20
36.583499
70
0
0
VERTEX
8
Layer 1
10
102.729641
20
36.288754
70
0
0
VERTEX
8
Layer 1
10
102.681487
20
35.928921
70
0
0
VERTEX
8
Layer 1
10
102.603865
20
35.556256
70
0
0
VERTEX
8
Layer 1
10
102.341498
20
35.278047
70
0
0
VERTEX
8
Layer 1
10
101.620774
20
35.111359
70
0
0
VERTEX
8
Layer 1
10
101.284886
20
35.227048
70
0
0
VERTEX
8
Layer 1
10
101.045041
20
35.468546
70
0
0
VERTEX
8
Layer 1
10
100.922010
20
36.019937
70
0
0
VERTEX
8
Layer 1
10
101.040312
20
36.387675
70
0
0
VERTEX
8
Layer 1
10
101.415193
20
36.745689
70
0
0
VERTEX
8
Layer 1
10
101.486101
20
36.791991
70
0
0
VERTEX
8
Layer 1
10
101.545632
20
36.856020
70
0
0
VERTEX
8
Layer 1
10
101.948328
20
37.447098
70
0
0
VERTEX
8
Layer 1
10
101.458320
20
37.430694
70
0
0
VERTEX
8
Layer 1
10
100.671450
20
37.170344
70
0
0
VERTEX
8
Layer 1
10
100.151015
20
37.102710
70
0
0
VERTEX
8
Layer 1
10
99.789331
20
37.378571
70
0
0
VERTEX
8
Layer 1
10
99.700166
20
37.876252
70
0
0
VERTEX
8
Layer 1
10
99.959722
20
38.297997
70
0
0
VERTEX
8
Layer 1
10
100.381996
20
38.421822
70
0
0
VERTEX
8
Layer 1
10
100.822263
20
38.279476
70
0
0
VERTEX
8
Layer 1
10
101.893295
20
38.168881
70
0
0
VERTEX
8
Layer 1
10
101.541399
20
38.646982
70
0
0
VERTEX
8
Layer 1
10
101.386618
20
38.773453
70
0
0
VERTEX
8
Layer 1
10
101.052450
20
38.985119
70
0
0
VERTEX
8
Layer 1
10
100.852425
20
39.183292
70
0
0
VERTEX
8
Layer 1
10
100.748973
20
39.823053
70
0
0
VERTEX
8
Layer 1
10
101.109864
20
40.361480
70
0
0
VERTEX
8
Layer 1
10
101.806511
20
40.487157
70
0
0
VERTEX
8
Layer 1
10
102.158374
20
40.375635
70
0
0
VERTEX
8
Layer 1
10
102.388594
20
40.159338
70
0
0
VERTEX
8
Layer 1
10
102.443627
20
39.993180
70
0
0
VERTEX
8
Layer 1
10
102.501835
20
39.702668
70
0
0
VERTEX
8
Layer 1
10
102.593910
20
39.358446
70
0
0
VERTEX
8
Layer 1
10
102.682810
20
39.138577
70
0
0
VERTEX
8
Layer 1
10
102.761921
20
39.013165
70
0
0
VERTEX
8
Layer 1
10
103.305639
20
38.230793
70
0
0
VERTEX
8
Layer 1
10
106.563184
20
38.383722
70
0
0
VERTEX
8
Layer 1
10
104.787568
20
41.116864
70
0
0
VERTEX
8
Layer 1
10
104.484620
20
41.121362
70
0
0
VERTEX
8
Layer 1
10
103.654127
20
41.079062
70
0
0
VERTEX
8
Layer 1
10
103.133395
20
40.922660
70
0
0
VERTEX
8
Layer 1
10
102.443098
20
40.826617
70
0
0
VERTEX
8
Layer 1
10
101.944624
20
41.259475
70
0
0
VERTEX
8
Layer 1
10
101.805453
20
41.876218
70
0
0
VERTEX
8
Layer 1
10
102.213175
20
42.419936
70
0
0
VERTEX
8
Layer 1
10
102.579292
20
42.563703
70
0
0
VERTEX
8
Layer 1
10
102.932312
20
42.509629
70
0
0
VERTEX
8
Layer 1
10
103.180755
20
42.393742
70
0
0
VERTEX
8
Layer 1
10
103.232349
20
42.351673
70
0
0
VERTEX
8
Layer 1
10
103.453276
20
42.318865
70
0
0
VERTEX
8
Layer 1
10
104.041973
20
42.298227
70
0
0
VERTEX
8
Layer 1
10
103.770776
20
42.727910
70
0
0
VERTEX
8
Layer 1
10
103.307755
20
43.184051
70
0
0
VERTEX
8
Layer 1
10
102.912468
20
43.532507
70
0
0
VERTEX
8
Layer 1
10
102.846058
20
43.994469
70
0
0
VERTEX
8
Layer 1
10
103.163558
20
44.403779
70
0
0
VERTEX
8
Layer 1
10
103.637690
20
44.485271
70
0
0
VERTEX
8
Layer 1
10
104.011811
20
44.249263
70
0
0
VERTEX
8
Layer 1
10
104.170296
20
43.720890
70
0
0
VERTEX
8
Layer 1
10
104.373760
20
43.120816
70
0
0
VERTEX
8
Layer 1
10
104.644958
20
42.691398
70
0
0
VERTEX
8
Layer 1
10
104.831489
20
43.267660
70
0
0
VERTEX
8
Layer 1
10
104.887845
20
43.456043
70
0
0
VERTEX
8
Layer 1
10
104.900545
20
43.792857
70
0
0
VERTEX
8
Layer 1
10
104.977406
20
44.127025
70
0
0
VERTEX
8
Layer 1
10
105.263024
20
44.408012
70
0
0
VERTEX
8
Layer 1
10
105.883735
20
44.534748
70
0
0
VERTEX
8
Layer 1
10
106.412901
20
44.172269
70
0
0
VERTEX
8
Layer 1
10
106.606378
20
43.578412
70
0
0
VERTEX
8
Layer 1
10
106.373214
20
43.085362
70
0
0
VERTEX
8
Layer 1
10
105.818913
20
42.496665
70
0
0
VERTEX
8
Layer 1
10
105.390553
20
41.510035
70
0
0
VERTEX
8
Layer 1
10
107.094996
20
38.730326
70
0
0
VERTEX
8
Layer 1
10
108.554436
20
41.652380
70
0
0
VERTEX
8
Layer 1
10
108.103851
20
42.445071
70
0
0
VERTEX
8
Layer 1
10
108.025006
20
42.570483
70
0
0
VERTEX
8
Layer 1
10
107.831331
20
42.797760
70
0
0
VERTEX
8
Layer 1
10
107.602202
20
43.002283
70
0
0
VERTEX
8
Layer 1
10
107.247132
20
43.326662
70
0
0
VERTEX
8
Layer 1
10
107.179134
20
43.989707
70
0
0
VERTEX
8
Layer 1
10
107.564102
20
44.569143
70
0
0
VERTEX
8
Layer 1
10
107.888944
20
44.698723
70
0
0
VERTEX
8
Layer 1
10
108.225295
20
44.671537
70
0
0
VERTEX
8
Layer 1
10
108.759223
20
44.261698
70
0
0
VERTEX
8
Layer 1
10
108.885165
20
43.864030
70
0
0
VERTEX
8
Layer 1
10
108.904744
20
43.674588
70
0
0
VERTEX
8
Layer 1
10
108.953163
20
43.478797
70
0
0
VERTEX
8
Layer 1
10
109.198696
20
42.931375
70
0
0
VERTEX
8
Layer 1
10
109.417770
20
43.377197
70
0
0
VERTEX
8
Layer 1
10
109.522281
20
43.647601
70
0
0
VERTEX
8
Layer 1
10
109.572022
20
44.084427
70
0
0
VERTEX
8
Layer 1
10
109.694425
20
44.505081
70
0
0
VERTEX
8
Layer 1
10
109.936089
20
44.776312
70
0
0
VERTEX
8
Layer 1
10
110.403871
20
44.828699
70
0
0
VERTEX
8
Layer 1
10
110.811858
20
44.538716
70
0
0
VERTEX
8
Layer 1
10
110.919378
20
44.091042
70
0
0
VERTEX
8
Layer 1
10
110.654431
20
43.678292
70
0
0
VERTEX
8
Layer 1
10
110.075788
20
43.048320
70
0
0
VERTEX
8
Layer 1
10
109.856714
20
42.602498
70
0
0
VERTEX
8
Layer 1
10
110.706554
20
42.802523
70
0
0
VERTEX
8
Layer 1
10
111.131607
20
42.991435
70
0
0
VERTEX
8
Layer 1
10
111.485222
20
42.956510
70
0
0
VERTEX
8
Layer 1
10
111.990311
20
42.553285
70
0
0
VERTEX
8
Layer 1
10
112.103288
20
42.235356
70
0
0
VERTEX
8
Layer 1
10
112.058309
20
41.890240
70
0
0
VERTEX
8
Layer 1
10
111.632859
20
41.334881
70
0
0
VERTEX
8
Layer 1
10
111.279013
20
41.211651
70
0
0
VERTEX
8
Layer 1
10
110.891233
20
41.280906
70
0
0
VERTEX
8
Layer 1
10
110.130028
20
41.416372
70
0
0
VERTEX
8
Layer 1
10
109.189965
20
41.359222
70
0
0
VERTEX
8
Layer 1
10
107.672581
20
38.449868
70
0
0
VERTEX
8
Layer 1
10
110.907108
20
38.638515
70
0
0
VERTEX
8
Layer 1
10
111.362985
20
39.542066
70
0
0
VERTEX
8
Layer 1
10
111.545018
20
40.165953
70
0
0
VERTEX
8
Layer 1
10
111.662890
20
40.583796
70
0
0
VERTEX
8
Layer 1
10
111.926811
20
40.869479
70
0
0
VERTEX
8
Layer 1
10
112.618431
20
41.042517
70
0
0
VERTEX
8
Layer 1
10
112.932557
20
40.931590
70
0
0
VERTEX
8
Layer 1
10
113.165324
20
40.691679
70
0
0
VERTEX
8
Layer 1
10
113.315607
20
40.056945
70
0
0
VERTEX
8
Layer 1
10
113.181861
20
39.723603
70
0
0
VERTEX
8
Layer 1
10
112.841739
20
39.419829
70
0
0
VERTEX
8
Layer 1
10
112.319717
20
38.700428
70
0
0
VERTEX
8
Layer 1
10
112.787500
20
38.752551
70
0
0
VERTEX
8
Layer 1
10
113.374345
20
38.932996
70
0
0
VERTEX
8
Layer 1
10
113.965952
20
39.066082
70
0
0
VERTEX
8
Layer 1
10
114.445112
20
38.822665
70
0
0
VERTEX
8
Layer 1
10
114.534012
20
38.324985
70
0
0
VERTEX
8
Layer 1
10
114.274721
20
37.903239
70
0
0
VERTEX
8
Layer 1
10
113.947101
20
37.777959
70
0
0
VERTEX
8
Layer 1
10
113.602415
20
37.818573
70
0
0
VERTEX
8
Layer 1
10
113.086214
20
37.961977
70
0
0
VERTEX
8
Layer 1
10
112.339561
20
37.955362
70
0
0
VERTEX
8
Layer 1
10
112.726910
20
37.500544
70
0
0
VERTEX
8
Layer 1
10
113.013983
20
37.283321
70
0
0
VERTEX
8
Layer 1
10
113.346299
20
36.994926
70
0
0
VERTEX
8
Layer 1
10
113.467742
20
36.366541
70
0
0
VERTEX
8
Layer 1
10
113.342529
20
36.019640
70
0
0
VERTEX
8
Layer 1
10
113.040706
20
35.734452
70
0
0
VERTEX
8
Layer 1
10
112.403854
20
35.673069
70
0
0
VERTEX
8
Layer 1
10
111.834207
20
36.059625
70
0
0
VERTEX
8
Layer 1
10
111.745572
20
36.279758
70
0
0
VERTEX
8
Layer 1
10
111.653497
20
36.623716
70
0
0
VERTEX
8
Layer 1
10
111.527291
20
37.021649
70
0
0
VERTEX
8
Layer 1
10
111.280435
20
37.492342
70
0
0
VERTEX
8
Layer 1
10
110.962406
20
37.916733
70
0
0
VERTEX
8
Layer 1
10
107.705125
20
37.763804
70
0
0
VERTEX
8
Layer 1
10
109.480477
20
35.030397
70
0
0
VERTEX
8
Layer 1
10
110.541719
20
35.014787
70
0
0
VERTEX
8
Layer 1
10
110.806037
20
35.111359
70
0
0
VERTEX
8
Layer 1
10
111.288108
20
35.299213
70
0
0
VERTEX
8
Layer 1
10
111.829048
20
35.304637
70
0
0
VERTEX
8
Layer 1
10
112.288231
20
34.864768
70
0
0
VERTEX
8
Layer 1
10
112.409410
20
34.236648
70
0
0
VERTEX
8
Layer 1
10
112.019415
20
33.704572
70
0
0
VERTEX
8
Layer 1
10
111.660806
20
33.559084
70
0
0
VERTEX
8
Layer 1
10
111.329383
20
33.608263
70
0
0
VERTEX
8
Layer 1
10
111.051835
20
33.730501
70
0
0
VERTEX
8
Layer 1
10
110.877739
20
33.768601
70
0
0
VERTEX
8
Layer 1
10
110.226336
20
33.849299
70
0
0
VERTEX
8
Layer 1
10
110.497269
20
33.419616
70
0
0
VERTEX
8
Layer 1
10
110.949177
20
32.981466
70
0
0
VERTEX
8
Layer 1
10
111.355841
20
32.615019
70
0
0
VERTEX
8
Layer 1
10
111.410874
20
32.170784
70
0
0
VERTEX
8
Layer 1
10
111.140206
20
31.767030
70
0
0
VERTEX
8
Layer 1
10
111.140206
20
31.767030
70
0
0
SEQEND
8
Layer 1
0
POLYLINE
8
Layer 1
62
7
70
1
10
0.000000
20
0.000000
66
1
0
VERTEX
8
Layer 1
10
82.127622
20
50.060828
70
0
0
VERTEX
8
Layer 1
10
83.081179
20
50.259530
70
0
0
VERTEX
8
Layer 1
10
83.696599
20
49.488800
70
0
0
VERTEX
8
Layer 1
10
83.809046
20
50.475165
70
0
0
VERTEX
8
Layer 1
10
84.713127
20
50.834204
70
0
0
VERTEX
8
Layer 1
10
83.831536
20
51.244308
70
0
0
VERTEX
8
Layer 1
10
83.770417
20
52.236230
70
0
0
VERTEX
8
Layer 1
10
83.110547
20
51.511272
70
0
0
VERTEX
8
Layer 1
10
82.171542
20
51.756541
70
0
0
VERTEX
8
Layer 1
10
82.649379
20
50.892677
70
0
0
VERTEX
8
Layer 1
10
82.127622
20
50.060828
70
0
0
VERTEX
8
Layer 1
10
82.127622
20
50.060828
70
0
0
SEQEND
8
Layer 1
0
POLYLINE
8
Layer 1
62
7
70
1
10
0.000000
20
0.000000
66
1
0
VERTEX
8
Layer 1
10
81.004202
20
49.274223
70
0
0
VERTEX
8
Layer 1
10
82.030255
20
50.908817
70
0
0
VERTEX
8
Layer 1
10
81.088604
20
52.595798
70
0
0
VERTEX
8
Layer 1
10
82.939627
20
52.107642
70
0
0
VERTEX
8
Layer 1
10
84.223119
20
53.535332
70
0
0
VERTEX
8
Layer 1
10
84.336096
20
51.604670
70
0
0
VERTEX
8
Layer 1
10
86.076523
20
50.799808
70
0
0
VERTEX
8
Layer 1
10
84.299848
20
50.091784
70
0
0
VERTEX
8
Layer 1
10
84.084213
20
48.165355
70
0
0
VERTEX
8
Layer 1
10
82.873481
20
49.663954
70
0
0
VERTEX
8
Layer 1
10
81.004202
20
49.274223
70
0
0
VERTEX
8
Layer 1
10
81.004202
20
49.274223
70
0
0
SEQEND
8
Layer 1
0
POLYLINE
8
Layer 1
62
7
70
1
10
0.000000
20
0.000000
66
1
0
VERTEX
8
Layer 1
10
36.956689
20
55.244538
70
0
0
VERTEX
8
Layer 1
10
37.606505
20
55.980873
70
0
0
VERTEX
8
Layer 1
10
38.552654
20
55.733752
70
0
0
VERTEX
8
Layer 1
10
38.065027
20
56.594441
70
0
0
VERTEX
8
Layer 1
10
38.581228
20
57.429994
70
0
0
VERTEX
8
Layer 1
10
37.632698
20
57.226265
70
0
0
VERTEX
8
Layer 1
10
37.002726
20
57.986412
70
0
0
VERTEX
8
Layer 1
10
36.897158
20
57.004544
70
0
0
VERTEX
8
Layer 1
10
35.998898
20
56.633599
70
0
0
VERTEX
8
Layer 1
10
36.888691
20
56.228522
70
0
0
VERTEX
8
Layer 1
10
36.956689
20
55.244538
70
0
0
VERTEX
8
Layer 1
10
36.956689
20
55.244538
70
0
0
SEQEND
8
Layer 1
0
POLYLINE
8
Layer 1
62
7
70
1
10
0.000000
20
0.000000
66
1
0
VERTEX
8
Layer 1
10
36.514835
20
53.933000
70
0
0
VERTEX
8
Layer 1
10
36.382015
20
55.867102
70
0
0
VERTEX
8
Layer 1
10
34.637090
20
56.652914
70
0
0
VERTEX
8
Layer 1
10
36.410325
20
57.380252
70
0
0
VERTEX
8
Layer 1
10
36.605852
20
59.304035
70
0
0
VERTEX
8
Layer 1
10
37.827167
20
57.821047
70
0
0
VERTEX
8
Layer 1
10
39.697240
20
58.226918
70
0
0
VERTEX
8
Layer 1
10
38.684151
20
56.583064
70
0
0
VERTEX
8
Layer 1
10
39.639296
20
54.904814
70
0
0
VERTEX
8
Layer 1
10
37.788538
20
55.376565
70
0
0
VERTEX
8
Layer 1
10
36.514835
20
53.933000
70
0
0
VERTEX
8
Layer 1
10
36.514835
20
53.933000
70
0
0
SEQEND
8
Layer 1
0
POLYLINE
8
Layer 1
62
7
70
1
10
0.000000
20
0.000000
66
1
0
VERTEX
8
Layer 1
10
46.126606
20
47.655769
70
0
0
VERTEX
8
Layer 1
10
47.067993
20
47.907387
70
0
0
VERTEX
8
Layer 1
10
47.724159
20
47.172111
70
0
0
VERTEX
8
Layer 1
10
47.782896
20
48.163503
70
0
0
VERTEX
8
Layer 1
10
48.666339
20
48.572549
70
0
0
VERTEX
8
Layer 1
10
47.763846
20
48.932911
70
0
0
VERTEX
8
Layer 1
10
47.649017
20
49.919805
70
0
0
VERTEX
8
Layer 1
10
47.029364
20
49.158865
70
0
0
VERTEX
8
Layer 1
10
46.078717
20
49.351216
70
0
0
VERTEX
8
Layer 1
10
46.602591
20
48.515663
70
0
0
VERTEX
8
Layer 1
10
46.126606
20
47.655769
70
0
0
VERTEX
8
Layer 1
10
46.126606
20
47.655769
70
0
0
SEQEND
8
Layer 1
0
POLYLINE
8
Layer 1
62
7
70
1
10
0.000000
20
0.000000
66
1
0
VERTEX
8
Layer 1
10
45.047637
20
46.807516
70
0
0
VERTEX
8
Layer 1
10
45.983467
20
48.496878
70
0
0
VERTEX
8
Layer 1
10
44.951858
20
50.128561
70
0
0
VERTEX
8
Layer 1
10
46.826429
20
49.744651
70
0
0
VERTEX
8
Layer 1
10
48.030810
20
51.241927
70
0
0
VERTEX
8
Layer 1
10
48.248033
20
49.320789
70
0
0
VERTEX
8
Layer 1
10
50.029470
20
48.614353
70
0
0
VERTEX
8
Layer 1
10
48.293806
20
47.807904
70
0
0
VERTEX
8
Layer 1
10
48.183210
20
45.872479
70
0
0
VERTEX
8
Layer 1
10
46.892839
20
47.300963
70
0
0
VERTEX
8
Layer 1
10
45.047637
20
46.807516
70
0
0
VERTEX
8
Layer 1
10
45.047637
20
46.807516
70
0
0
SEQEND
8
Layer 1
0
POLYLINE
8
Layer 1
62
7
70
1
10
0.000000
20
0.000000
66
1
0
VERTEX
8
Layer 1
10
98.038320
20
45.184034
70
0
0
VERTEX
8
Layer 1
10
98.968329
20
45.475869
70
0
0
VERTEX
8
Layer 1
10
99.654658
20
44.769433
70
0
0
VERTEX
8
Layer 1
10
99.672120
20
45.762413
70
0
0
VERTEX
8
Layer 1
10
100.537836
20
46.208764
70
0
0
VERTEX
8
Layer 1
10
99.621320
20
46.530233
70
0
0
VERTEX
8
Layer 1
10
99.465746
20
47.511306
70
0
0
VERTEX
8
Layer 1
10
98.878107
20
46.724436
70
0
0
VERTEX
8
Layer 1
10
97.920052
20
46.876307
70
0
0
VERTEX
8
Layer 1
10
98.478057
20
46.063508
70
0
0
VERTEX
8
Layer 1
10
98.038320
20
45.184034
70
0
0
VERTEX
8
Layer 1
10
98.038320
20
45.184034
70
0
0
SEQEND
8
Layer 1
0
POLYLINE
8
Layer 1
62
7
70
1
10
0.000000
20
0.000000
66
1
0
VERTEX
8
Layer 1
10
96.995599
20
44.290537
70
0
0
VERTEX
8
Layer 1
10
97.860520
20
46.018529
70
0
0
VERTEX
8
Layer 1
10
96.762236
20
47.604704
70
0
0
VERTEX
8
Layer 1
10
98.651094
20
47.301227
70
0
0
VERTEX
8
Layer 1
10
99.792241
20
48.848773
70
0
0
VERTEX
8
Layer 1
10
100.089103
20
46.938484
70
0
0
VERTEX
8
Layer 1
10
101.898057
20
46.309041
70
0
0
VERTEX
8
Layer 1
10
100.197318
20
45.429038
70
0
0
VERTEX
8
Layer 1
10
100.166890
20
43.490438
70
0
0
VERTEX
8
Layer 1
10
98.818576
20
44.862566
70
0
0
VERTEX
8
Layer 1
10
96.995599
20
44.290537
70
0
0
VERTEX
8
Layer 1
10
96.995599
20
44.290537
70
0
0
SEQEND
8
Layer 1
0
POLYLINE
8
Layer 1
62
7
70
1
10
0.000000
20
0.000000
66
1
0
VERTEX
8
Layer 1
10
111.204235
20
47.207036
70
0
0
VERTEX
8
Layer 1
10
112.177636
20
47.208623
70
0
0
VERTEX
8
Layer 1
10
112.629544
20
46.328885
70
0
0
VERTEX
8
Layer 1
10
112.933020
20
47.272917
70
0
0
VERTEX
8
Layer 1
10
113.889488
20
47.441721
70
0
0
VERTEX
8
Layer 1
10
113.106058
20
48.021952
70
0
0
VERTEX
8
Layer 1
10
113.240466
20
49.006465
70
0
0
VERTEX
8
Layer 1
10
112.451744
20
48.429409
70
0
0
VERTEX
8
Layer 1
10
111.579678
20
48.859886
70
0
0
VERTEX
8
Layer 1
10
111.878392
20
47.916647
70
0
0
VERTEX
8
Layer 1
10
111.204235
20
47.207036
70
0
0
VERTEX
8
Layer 1
10
111.204235
20
47.207036
70
0
0
SEQEND
8
Layer 1
0
POLYLINE
8
Layer 1
62
7
70
1
10
0.000000
20
0.000000
66
1
0
VERTEX
8
Layer 1
10
109.949318
20
46.663582
70
0
0
VERTEX
8
Layer 1
10
111.275143
20
48.057670
70
0
0
VERTEX
8
Layer 1
10
110.682742
20
49.901549
70
0
0
VERTEX
8
Layer 1
10
112.400944
20
49.048534
70
0
0
VERTEX
8
Layer 1
10
113.938700
20
50.187563
70
0
0
VERTEX
8
Layer 1
10
113.670942
20
48.273041
70
0
0
VERTEX
8
Layer 1
10
115.218753
20
47.131894
70
0
0
VERTEX
8
Layer 1
10
113.338891
20
46.797726
70
0
0
VERTEX
8
Layer 1
10
112.750193
20
44.953582
70
0
0
VERTEX
8
Layer 1
10
111.857226
20
46.667022
70
0
0
VERTEX
8
Layer 1
10
109.949318
20
46.663582
70
0
0
VERTEX
8
Layer 1
10
109.949318
20
46.663582
70
0
0
SEQEND
8
Layer 1
0
POLYLINE
8
Layer 1
62
7
70
1
10
0.000000
20
0.000000
66
1
0
VERTEX
8
Layer 1
10
60.865467
20
45.680392
70
0
0
VERTEX
8
Layer 1
10
62.169332
20
47.095382
70
0
0
VERTEX
8
Layer 1
10
61.548885
20
48.929471
70
0
0
VERTEX
8
Layer 1
10
63.280052
20
48.103972
70
0
0
VERTEX
8
Layer 1
10
64.799816
20
49.267344
70
0
0
VERTEX
8
Layer 1
10
64.561692
20
47.348852
70
0
0
VERTEX
8
Layer 1
10
66.126965
20
46.232577
70
0
0
VERTEX
8
Layer 1
10
64.252394
20
45.868246
70
0
0
VERTEX
8
Layer 1
10
63.692272
20
44.014842
70
0
0
VERTEX
8
Layer 1
10
62.773110
20
45.713994
70
0
0
VERTEX
8
Layer 1
10
60.865467
20
45.680392
70
0
0
VERTEX
8
Layer 1
10
60.865467
20
45.680392
70
0
0
SEQEND
8
Layer 1
0
POLYLINE
8
Layer 1
62
7
70
1
10
0.000000
20
0.000000
66
1
0
VERTEX
8
Layer 1
10
124.271460
20
53.025216
70
0
0
VERTEX
8
Layer 1
10
125.564213
20
54.450789
70
0
0
VERTEX
8
Layer 1
10
124.929213
20
56.279852
70
0
0
VERTEX
8
Layer 1
10
126.666730
20
55.468375
70
0
0
VERTEX
8
Layer 1
10
128.177499
20
56.644447
70
0
0
VERTEX
8
Layer 1
10
127.954455
20
54.723839
70
0
0
VERTEX
8
Layer 1
10
129.528460
20
53.620528
70
0
0
VERTEX
8
Layer 1
10
127.656800
20
53.240851
70
0
0
VERTEX
8
Layer 1
10
127.111494
20
51.382949
70
0
0
VERTEX
8
Layer 1
10
126.178839
20
53.074693
70
0
0
VERTEX
8
Layer 1
10
124.271460
20
53.025216
70
0
0
VERTEX
8
Layer 1
10
124.271460
20
53.025216
70
0
0
SEQEND
8
Layer 1
 0 
ENDSEC
 0 
EOF