<svg width="572" height="361" viewBox="0 0 572 361" fill="none" xmlns="http://www.w3.org/2000/svg">
<rect width="572" height="361" fill="white"/>
<path d="M113.767 102.605C120.262 101.31 127.735 101.901 134.532 106.279C139.794 109.578 143.42 114.265 145.465 119.567C147.083 120.223 148.611 121.111 150.001 122.213C156.024 122.151 161.799 125.038 165.342 130.099C168.883 135.155 169.622 141.562 167.511 147.196C167.65 147.61 167.773 148.027 167.882 148.446C169.631 148.793 171.502 149.332 173.373 150.162C175.893 148.895 178.68 148.213 181.519 148.188C181.186 145.732 181.149 143.22 181.431 140.703L180.097 137.6L182.15 136.717C182.481 135.391 182.903 134.072 183.423 132.768C183.944 131.463 184.546 130.215 185.217 129.026L184.336 126.974L187.439 125.639C188.99 123.587 190.776 121.764 192.744 120.195L193.993 117.066L196.064 117.893C198.439 116.466 200.999 115.366 203.669 114.624L204.495 112.552L207.626 113.801C210.118 113.453 212.669 113.412 215.224 113.698L218.329 112.363L219.211 114.417C220.287 114.686 221.36 115.013 222.423 115.406L223.161 115.69L223.89 115.991C224.932 116.438 225.936 116.939 226.902 117.485L228.956 116.602L230.29 119.705C232.342 121.256 234.164 123.042 235.732 125.01L238.863 126.259L238.036 128.329C239.463 130.705 240.563 133.265 241.304 135.935L243.377 136.761L242.128 139.89C242.27 140.912 242.362 141.943 242.4 142.982C244.913 141.231 247.705 139.801 250.773 138.781C253.844 137.761 257.471 136.716 260.982 136.34C262.75 136.151 264.491 136.218 266.165 136.513C269.152 133.681 272.799 131.362 277.163 129.912C283.692 127.743 290.611 127.68 297.272 129.963C303.861 132.167 308.363 136.419 311.35 141.087C315.504 139.354 320.239 139.156 324.655 140.721C325.484 141.015 326.282 141.365 327.047 141.765C329.996 138.464 334.089 136.268 338.637 135.722C343.236 135.17 347.551 135.905 350.815 136.719C351.172 136.808 351.548 136.908 351.94 137.017C351.977 136.937 352.013 136.856 352.05 136.777C355.491 129.407 360.95 123.23 367.408 118.612C373.875 113.988 381.411 110.871 389.237 109.521C397.053 108.172 405.242 108.576 412.892 111.074C416.234 112.166 419.465 113.66 422.47 115.557C428.656 114.493 435.197 114.862 441.361 117.04C449.243 119.826 456.385 125.63 460.008 134.151C464.558 130.089 470.75 128.582 476.548 129.943C481.956 127.326 488.394 127.468 493.752 130.516C499.108 133.564 502.518 139.025 503.032 145.01C507.211 149.348 509.075 155.529 507.827 161.58C506.58 167.625 502.428 172.559 496.882 174.892C496.757 175.124 496.628 175.354 496.494 175.58C500.463 177.939 504.107 181.172 506.89 185.455C509.016 188.726 510.054 192.585 509.855 196.481C509.443 204.551 507.617 213.647 501.928 221.078C501.881 221.14 501.834 221.202 501.786 221.263C497.544 226.662 491.575 231.58 483.582 233.58C479.692 234.554 475.431 234.992 471.158 234.559C467.798 236.863 463.979 238.585 459.764 239.64C453.782 241.137 447.755 241.215 441.961 239.819C441.336 241.04 440.616 242.147 439.838 243.148C438.479 248.58 435.075 252.849 430.899 255.527C427.386 257.781 422.203 259.695 416.069 258.729C415.913 258.704 415.758 258.676 415.602 258.648C413.053 259.226 410.363 259.352 407.628 258.949C404.901 259.641 402.031 259.802 399.15 259.369C395.139 260.445 391.264 260.147 388.186 259.303C387.906 259.226 387.627 259.143 387.351 259.053C383.773 257.888 379.174 255.384 375.95 250.358C375.203 249.193 374.609 248.017 374.143 246.844C366.305 251.259 357.614 252.239 349.144 250.126C344.174 248.886 338.988 246.461 334.802 242.351C331.229 243.854 327.167 244.249 323.156 243.248L310.767 240.157C308.373 239.56 306.151 238.498 304.214 237.059C298.655 238.044 292.594 237.848 286.673 235.468C282.108 242.525 275.334 247.099 267.859 249.582C260.843 251.913 252.748 252.093 245.024 248.222C243.45 247.433 241.995 246.527 240.653 245.525C240.486 245.643 240.32 245.761 240.151 245.877C232.73 250.951 224.135 252.717 215.45 251.284C210.347 250.443 204.928 248.416 200.397 244.588C196.998 246.313 193.045 247.004 189.022 246.341L176.235 244.232C171.025 243.372 166.431 240.328 163.609 235.865C162.735 234.483 162.056 233.004 161.58 231.472C157.742 231.416 153.715 230.801 149.87 229.413C146.051 230.833 141.928 231.575 137.584 231.575C127.724 231.575 118.633 228.031 111.468 220.994C111.429 220.955 111.389 220.916 111.35 220.877C109.998 219.524 108.787 218.103 107.71 216.626L96.2126 219.159C86.734 221.247 77.2528 215.655 74.4948 206.35C71.3164 195.625 68.6259 186.583 66.4255 179.203C64.3875 179.418 62.3063 179.297 60.2663 178.819C56.9526 178.044 53.9925 177.301 51.8932 176.633C43.6722 174.018 38.3493 166.067 39.0641 157.47C40.0284 145.872 42.3949 133.636 48.9919 124.816C54.0151 118.092 60.9755 113.834 68.8913 112.09L69.6218 111.938C77.2031 110.445 85.6648 111.536 92.9147 117.153C92.9858 117.209 93.0555 117.265 93.1257 117.32C97.4431 109.756 104.48 104.644 113.132 102.738L113.767 102.605Z" fill="black"/>
<path d="M478.939 217.07C473.227 218.523 468.942 217.467 466.085 213.903C463.867 218.825 460.212 221.934 455.121 223.228C450.092 224.507 445.412 223.854 441.081 221.268C436.812 218.666 433.978 214.526 432.579 208.848C430.544 200.583 431.31 193.382 434.879 187.244C438.448 181.107 443.895 177.107 451.221 175.244C451.407 175.196 451.593 175.149 451.78 175.102C454.884 174.312 457.872 174.122 460.744 174.531C462.156 173.033 464.042 171.983 466.401 171.383C468.822 170.767 470.638 170.641 471.849 171.003C472.44 175.814 472.985 180.57 473.482 185.27C473.965 189.908 474.315 193.205 474.533 195.161C475.03 199.593 475.512 202.756 475.979 204.649C476.6 207.172 477.904 208.182 479.891 207.676C481.443 207.282 482.832 205.822 484.058 203.298C485.268 200.711 485.965 196.98 486.15 192.105C488.355 193.288 490.047 194.802 491.227 196.647C490.903 203.099 489.523 207.942 487.086 211.176C484.635 214.348 481.919 216.312 478.939 217.07ZM454.436 182.27C450.462 183.281 447.677 185.632 446.079 189.324C444.528 192.936 444.28 197.827 445.338 203.994C445.415 204.578 445.516 205.122 445.641 205.627C446.402 208.718 447.722 210.997 449.6 212.464C451.541 213.915 453.66 214.348 455.957 213.764C459.869 212.769 462.126 209.211 462.73 203.09L459.931 182.08C457.944 181.781 456.112 181.844 454.436 182.27Z" fill="white"/>
<path d="M344.847 219.831L352.217 199.478C352.635 197.774 352.549 196.244 351.959 194.888C351.368 193.532 350.11 192.609 348.185 192.121C346.26 191.633 344.421 192.005 342.668 193.237C340.992 194.421 339.534 196.196 338.293 198.563C336.976 202.05 335.03 207.154 332.457 213.875C329.899 220.533 328.241 224.872 327.481 226.892L315.093 223.751C329.059 186.201 337.591 163.126 340.691 154.527C342.119 154.353 343.951 154.549 346.187 155.116C351.03 156.344 353.096 158.409 352.383 161.312L352.244 161.88C348.756 171.52 345.501 179.945 342.478 187.156C346.513 184.961 350.61 184.391 354.771 185.445C358.931 186.5 361.959 188.407 363.854 191.166C365.75 193.926 366.295 196.946 365.489 200.228C365.272 201.111 364.683 202.705 363.722 205.008C359.971 214.112 357.893 219.485 357.491 221.125C356.763 224.091 357.361 225.818 359.286 226.306C360.901 226.716 362.872 226.076 365.199 224.386C367.604 222.65 369.923 219.652 372.156 215.391C373.71 218.198 374.541 220.319 374.651 221.755C368.727 231.917 361.666 235.959 353.469 233.881C349.619 232.905 347.057 230.982 345.783 228.112C344.508 225.242 344.197 222.481 344.847 219.831Z" fill="white"/>
<path d="M311.943 194.104L316.341 197.657C316.52 201.297 316.193 204.526 315.361 207.343C314.528 210.16 313.393 212.359 311.954 213.942C309.422 216.716 306.758 218.574 303.965 219.518C299.106 221.158 295.028 220.959 291.731 218.919C288.475 216.797 285.999 213.35 284.303 208.577C281.579 200.861 279.539 196.17 278.185 194.502C276.83 192.835 274.807 192.319 272.115 192.954L270.482 185.795C271.515 185.241 272.284 184.707 272.791 184.193C273.297 183.679 273.885 182.795 274.554 181.542C276.014 178.993 276.11 174.129 274.842 166.949C273.936 161.498 274.315 157.19 275.977 154.024C277.701 150.838 279.99 148.763 282.844 147.799C285.699 146.835 288.502 146.848 291.253 147.838C293.985 148.767 295.966 151.113 297.197 154.878C298.831 159.878 298.452 164.803 296.059 169.655C293.727 174.486 289.887 179.449 284.539 184.544C287.069 184.855 289.253 186.071 291.093 188.191C292.932 190.311 294.357 192.709 295.366 195.384C296.376 198.058 297.324 200.651 298.212 203.161C300.393 209.004 303.092 211.382 306.311 210.295C310.077 209.024 311.954 203.627 311.943 194.104ZM261.875 233.728C258.656 234.815 255.752 234.699 253.162 233.38C250.573 232.061 248.774 229.859 247.765 226.773C245.404 219.551 248.751 211.534 257.806 202.719C257.041 198.934 255.964 193.575 254.574 186.643C251.613 172.428 249.92 164.158 249.498 161.834C251.463 159.388 253.782 157.714 256.455 156.812C259.188 155.889 261.303 155.346 262.801 155.183L273.161 209.769C275.294 222.481 271.532 230.468 261.875 233.728ZM291.516 159.161C291.213 158.235 290.708 157.617 290 157.308C289.352 156.978 288.786 156.896 288.3 157.06C287.814 157.224 287.439 157.419 287.176 157.645C286.973 157.85 286.801 158.148 286.659 158.539C286.557 158.847 286.496 159.176 286.476 159.526C286.435 159.814 286.414 160.266 286.414 160.883C286.474 161.48 286.514 162.015 286.534 162.488C286.594 162.879 286.654 163.475 286.714 164.277C286.774 165.079 286.864 166.18 286.984 167.579C287.084 168.915 287.133 170.304 287.132 171.744C291.144 166.688 292.605 162.494 291.516 159.161ZM254.113 223.293C254.84 225.515 256.235 226.277 258.3 225.58C259.151 225.293 259.85 224.44 260.398 223.022C260.986 221.521 261.059 219.475 260.616 216.883L259.468 210.896C254.909 216.136 253.124 220.269 254.113 223.293Z" fill="white"/>
<path d="M208.597 221.455L214.354 200.37C214.635 198.638 214.428 197.12 213.731 195.816C213.034 194.513 211.644 193.687 209.56 193.337C207.54 192.999 205.652 193.638 203.898 195.256C202.217 196.82 200.963 198.95 200.136 201.645C195.009 218.847 192.257 228.208 191.881 229.727L179.094 227.583L191.662 183.119C194.429 182.858 196.507 182.844 197.896 183.076C202.127 183.786 204.082 185.728 203.761 188.905C207.355 186.343 211.299 185.422 215.593 186.142C219.95 186.872 223.183 188.535 225.292 191.129C227.4 193.724 228.184 196.69 227.642 200.027C227.496 200.925 227.031 202.594 226.246 205.033C223.21 214.544 221.562 220.102 221.302 221.706C220.823 224.658 221.562 226.298 223.519 226.626C227.813 227.346 231.805 223.335 235.494 214.593C237.266 217.263 238.264 219.309 238.487 220.73C233.307 231.464 226.581 236.137 218.309 234.75C214.394 234.094 211.687 232.388 210.188 229.632C208.69 226.876 208.159 224.15 208.597 221.455Z" fill="white"/>
<path d="M162.008 214.373C156.12 214.373 152.216 212.292 150.296 208.13C146.968 212.357 142.68 214.471 137.432 214.471C132.248 214.471 127.864 212.682 124.28 209.105C120.76 205.528 119 200.813 119 194.959C119 186.439 121.464 179.642 126.392 174.569C131.32 169.496 137.56 166.96 145.112 166.96C145.304 166.96 145.496 166.96 145.688 166.96C148.888 166.96 151.832 167.513 154.52 168.618C156.248 167.513 158.328 166.96 160.76 166.96C163.256 166.96 165.048 167.285 166.136 167.935C165.56 172.748 164.952 177.496 164.312 182.179C163.672 186.797 163.224 190.081 162.968 192.032C162.392 196.455 162.104 199.642 162.104 201.593C162.104 204.195 163.128 205.496 165.176 205.496C166.776 205.496 168.472 204.422 170.264 202.276C172.056 200.065 173.624 196.618 174.968 191.935C176.824 193.626 178.104 195.512 178.808 197.593C176.952 203.772 174.456 208.13 171.32 210.666C168.184 213.138 165.08 214.373 162.008 214.373ZM146.552 174.569C142.456 174.569 139.192 176.163 136.76 179.35C134.392 182.472 132.984 187.154 132.536 193.398C132.472 193.984 132.44 194.536 132.44 195.057C132.44 198.244 133.176 200.78 134.648 202.666C136.184 204.552 138.136 205.496 140.504 205.496C144.536 205.496 147.576 202.601 149.624 196.813L151.928 175.74C150.072 174.96 148.28 174.569 146.552 174.569Z" fill="white"/>
<path d="M116.959 120.702C119.897 120.044 122.402 120.416 124.475 121.817C126.597 123.14 127.947 125.135 128.525 127.803C129.572 132.63 128.738 136.946 126.023 140.75C123.309 144.555 119.46 148.413 114.476 152.326C112.536 165.148 110.259 180.642 107.644 198.81L92.0807 202.294C83.4021 172.535 78.3139 155.26 76.8162 150.467C75.3673 145.597 74.2965 142.773 73.6037 141.996C72.9735 141.204 72.0021 140.956 70.6895 141.249C67.3769 141.991 65.2579 148.692 64.3325 161.354C61.0157 160.564 58.6879 159.953 57.3489 159.52C58.2647 148.327 60.3685 140.496 63.66 136.03C65.8869 133.001 68.9067 131.059 72.7193 130.206C76.1568 129.436 79.061 129.985 81.4317 131.852C83.8024 133.719 86.0162 137.885 88.0731 144.351C89.1428 147.774 91.0673 154.536 93.8465 164.636C96.6744 174.659 98.5713 181.294 99.5372 184.541L100.1 184.415L105.667 140.712C106.449 134.343 107.352 130.045 108.377 127.818C110.036 123.983 112.897 121.611 116.959 120.702ZM122.749 131.993C122.57 131.167 122.175 130.556 121.565 130.16C120.955 129.764 120.212 129.664 119.337 129.86C118.525 130.042 117.951 130.869 117.615 132.343C117.341 133.803 116.762 137.329 115.878 142.922C121.078 138.494 123.368 134.851 122.749 131.993Z" fill="white"/>
<g clip-path="url(#clip0_1_2)">
<path d="M422.014 134.794L417.847 136.261C415.285 132.813 411.527 130.188 406.999 128.686C402.47 127.183 397.354 126.863 392.23 127.761C387.107 128.659 382.183 130.74 378.016 133.767C373.85 136.795 370.609 140.647 368.661 144.886C366.714 149.125 366.138 153.581 367 157.748C367.861 161.915 370.125 165.626 373.534 168.459C376.943 171.292 381.361 173.133 386.285 173.773C391.21 174.414 396.444 173.828 401.392 172.082L431.155 161.6C435.541 160.056 439.265 157.162 441.509 153.557C443.752 149.951 444.332 145.928 443.12 142.374C441.908 138.819 439.003 136.023 435.045 134.602C431.087 133.18 426.4 133.249 422.014 134.794Z" stroke="white" stroke-width="4" stroke-linecap="round" stroke-linejoin="round"/>
</g>
<g clip-path="url(#clip1_1_2)">
<path d="M223.381 120.031C223.784 119.003 223.282 117.833 222.258 117.418C221.234 117.003 220.077 117.5 219.674 118.528L221.527 119.28L223.381 120.031ZM217.883 123.091C217.48 124.119 217.982 125.289 219.006 125.704C220.03 126.119 221.187 125.622 221.59 124.593L219.737 123.842L217.883 123.091ZM205.476 165.655C205.88 164.626 205.377 163.457 204.353 163.042C203.329 162.627 202.172 163.124 201.769 164.152L203.622 164.903L205.476 165.655ZM199.978 168.715C199.575 169.743 200.078 170.913 201.101 171.328C202.125 171.742 203.282 171.245 203.686 170.217L201.832 169.466L199.978 168.715ZM203.012 118.773C202.58 117.75 201.409 117.267 200.397 117.695C199.386 118.123 198.916 119.299 199.349 120.322L201.181 119.547L203.012 118.773ZM201.265 124.853C201.698 125.876 202.868 126.358 203.88 125.93C204.892 125.503 205.361 124.327 204.929 123.304L203.097 124.078L201.265 124.853ZM222.094 163.893C221.662 162.87 220.491 162.387 219.479 162.815C218.467 163.243 217.998 164.419 218.431 165.442L220.262 164.667L222.094 163.893ZM220.347 169.973C220.779 170.996 221.95 171.478 222.962 171.051C223.974 170.623 224.443 169.447 224.011 168.424L222.179 169.198L220.347 169.973ZM187.718 132.503C186.695 132.089 185.538 132.586 185.134 133.614C184.731 134.642 185.233 135.812 186.257 136.227L186.988 134.365L187.718 132.503ZM190.746 138.047C191.77 138.461 192.927 137.964 193.331 136.936C193.734 135.908 193.231 134.738 192.208 134.323L191.477 136.185L190.746 138.047ZM232.613 150.699C231.589 150.284 230.432 150.781 230.029 151.809C229.625 152.838 230.128 154.008 231.152 154.422L231.882 152.561L232.613 150.699ZM235.641 156.242C236.665 156.657 237.822 156.16 238.225 155.132C238.629 154.103 238.126 152.933 237.102 152.519L236.372 154.38L235.641 156.242ZM186.446 153.199C185.439 153.639 184.984 154.82 185.428 155.838C185.872 156.856 187.049 157.325 188.055 156.885L187.251 155.042L186.446 153.199ZM192.514 154.938C193.521 154.498 193.976 153.317 193.532 152.299C193.088 151.281 191.911 150.812 190.905 151.252L191.709 153.095L192.514 154.938ZM230.845 133.808C229.839 134.247 229.383 135.429 229.827 136.447C230.272 137.465 231.448 137.933 232.455 137.494L231.65 135.651L230.845 133.808ZM236.913 135.546C237.92 135.107 238.376 133.925 237.931 132.907C237.487 131.889 236.311 131.42 235.304 131.86L236.109 133.703L236.913 135.546ZM222.903 148.922L221.05 148.17C218.973 153.462 213.089 156.006 207.934 153.917L207.203 155.779L206.473 157.64C213.716 160.576 221.889 156.98 224.757 149.673L222.903 148.922ZM207.203 155.779L207.934 153.917C202.779 151.828 200.233 145.867 202.31 140.575L200.456 139.824L198.602 139.073C195.735 146.38 199.23 154.705 206.473 157.64L207.203 155.779ZM200.456 139.824L202.31 140.575C204.386 135.283 210.271 132.739 215.425 134.829L216.156 132.967L216.886 131.105C209.644 128.17 201.47 131.766 198.602 139.073L200.456 139.824ZM216.156 132.967L215.425 134.829C220.58 136.918 223.126 142.879 221.05 148.17L222.903 148.922L224.757 149.673C227.624 142.366 224.129 134.04 216.886 131.105L216.156 132.967ZM221.527 119.28L219.674 118.528L217.883 123.091L219.737 123.842L221.59 124.593L223.381 120.031L221.527 119.28ZM203.622 164.903L201.769 164.152L199.978 168.715L201.832 169.466L203.686 170.217L205.476 165.655L203.622 164.903ZM201.181 119.547L199.349 120.322L201.265 124.853L203.097 124.078L204.929 123.304L203.012 118.773L201.181 119.547ZM220.262 164.667L218.431 165.442L220.347 169.973L222.179 169.198L224.011 168.424L222.094 163.893L220.262 164.667ZM186.988 134.365L186.257 136.227L190.746 138.047L191.477 136.185L192.208 134.323L187.718 132.503L186.988 134.365ZM231.882 152.561L231.152 154.422L235.641 156.242L236.372 154.38L237.102 152.519L232.613 150.699L231.882 152.561ZM187.251 155.042L188.055 156.885L192.514 154.938L191.709 153.095L190.905 151.252L186.446 153.199L187.251 155.042ZM231.65 135.651L232.455 137.494L236.913 135.546L236.109 133.703L235.304 131.86L230.845 133.808L231.65 135.651Z" fill="white"/>
</g>
<path d="M420.058 240.936C419.388 241.373 418.738 241.542 418.108 241.444C417.523 241.316 417.059 240.981 416.718 240.44C416.433 239.989 416.248 239.346 416.162 238.511C416.076 237.675 415.805 236.897 415.35 236.175L414.325 234.552L413.485 236.818C413.408 236.996 413.351 237.255 413.315 237.597C413.295 237.865 413.287 238.252 413.291 238.759C413.272 239.726 412.793 240.516 411.854 241.128C411.095 241.623 410.29 241.797 409.441 241.651C408.608 241.43 407.964 240.959 407.508 240.237C407.081 239.56 406.839 238.827 406.782 238.037C406.769 237.218 407.189 236.435 408.042 235.688C408.611 235.19 409.023 234.794 409.279 234.5C409.579 234.176 409.875 233.697 410.168 233.061C410.46 232.425 410.906 231.433 411.507 230.087L405.065 219.581L399.415 230.712L401.117 233.709L401.416 234.182C401.701 234.633 402.241 235.14 403.038 235.703C403.778 236.176 404.262 236.592 404.489 236.953C404.916 237.63 405.002 238.465 404.747 239.459C404.536 240.424 404.073 241.139 403.358 241.605C402.51 242.159 401.618 242.294 400.683 242.013C399.748 241.731 399.082 241.274 398.683 240.643C398.456 240.282 398.327 239.729 398.298 238.984C398.29 238.671 398.251 238.41 398.182 238.2C398.129 237.916 398.082 237.692 398.042 237.528L396.98 235.546L396.152 237.232C395.953 237.616 395.783 238.046 395.641 238.52C395.543 238.965 395.497 239.441 395.501 239.948C395.555 240.931 395.112 241.729 394.174 242.341C393.683 242.661 393.094 242.727 392.407 242.538C391.691 242.304 391.177 241.939 390.864 241.443C390.522 240.902 390.492 240.253 390.772 239.498C391.051 238.743 391.468 238.153 392.02 237.729C392.633 237.202 393.502 236.031 394.627 234.216L392.372 234.54C392.018 234.579 391.685 234.701 391.372 234.905C390.211 235.662 389.199 235.908 388.338 235.642C387.521 235.347 386.913 234.884 386.514 234.252C386.03 233.486 385.93 232.628 386.214 231.679C386.498 230.73 387.065 229.979 387.913 229.425C388.718 228.901 389.666 228.856 390.76 229.289C391.43 229.552 391.985 229.731 392.424 229.827C392.907 229.894 393.48 229.902 394.143 229.853C394.849 229.774 395.851 229.662 397.147 229.517L402.797 218.386L390.571 219.099L388.513 222.732C388.448 223.029 388.367 223.4 388.27 223.846C388.144 224.246 388.083 224.699 388.088 225.206C388.125 226.264 387.697 227.084 386.803 227.666C385.954 228.22 385.046 228.43 384.079 228.296C383.112 228.163 382.386 227.713 381.903 226.946C381.589 226.45 381.435 225.755 381.438 224.862C381.413 223.923 382.034 223.009 383.302 222.119C383.391 222.061 383.48 222.003 383.57 221.944C383.63 221.841 383.706 221.76 383.795 221.702C383.884 221.644 384.392 220.899 385.317 219.468L383.465 219.53C383.083 219.525 382.091 219.852 380.491 220.514C378.98 221.117 377.868 220.855 377.157 219.727C376.815 219.186 376.703 218.559 376.82 217.846C376.938 217.133 377.265 216.601 377.801 216.252C378.292 215.932 378.824 215.776 379.397 215.784C380.015 215.763 380.57 215.943 381.061 216.322C381.525 216.657 382.874 216.796 385.109 216.74L383.779 214.933L383.194 214.455C382.657 214.105 382.236 213.838 381.931 213.655C381.627 213.471 381.375 213.222 381.175 212.906C380.72 212.185 380.589 211.378 380.784 210.488C380.978 209.597 381.433 208.919 382.148 208.453C382.907 207.958 383.785 207.799 384.781 207.978C385.821 208.127 386.554 208.54 386.981 209.217C387.038 209.307 387.108 209.516 387.189 209.845C387.242 210.129 387.315 210.495 387.409 210.943C387.531 211.436 387.647 211.87 387.757 212.244C387.839 212.573 387.951 212.85 388.093 213.075L388.392 213.549L390.447 216.506L402.759 215.928L396.048 205.598L394.903 205.581C392.42 205.544 390.718 205.794 389.796 206.332C388.845 206.824 387.976 206.945 387.187 206.695C386.415 206.371 385.787 205.826 385.303 205.059C384.819 204.292 384.644 203.515 384.777 202.728C384.956 201.911 385.469 201.227 386.318 200.673C387.257 200.062 388.163 199.948 389.036 200.334C389.459 200.504 389.772 200.65 389.975 200.772C390.178 200.894 390.243 200.947 390.17 200.931C390.243 200.947 390.522 200.988 391.005 201.055C391.505 201.048 392.247 201.074 393.23 201.133L392.205 199.509C391.778 198.833 391.195 198.258 390.455 197.785C389.744 197.358 389.246 196.919 388.961 196.468C388.619 195.927 388.536 195.344 388.71 194.722C388.884 194.099 389.284 193.583 389.91 193.175C390.491 192.797 391.088 192.694 391.702 192.867C392.331 192.966 392.803 193.263 393.116 193.759C393.429 194.255 393.629 194.921 393.715 195.756C393.829 196.636 394.085 197.392 394.484 198.024L395.509 199.647L396.214 197.469C396.291 197.291 396.362 197.054 396.427 196.757C396.508 196.386 396.524 195.961 396.475 195.484C396.406 194.575 396.862 193.8 397.845 193.159C398.605 192.664 399.387 192.504 400.191 192.68C401.041 192.826 401.707 193.283 402.191 194.05C403.216 195.673 403.166 197.043 402.041 198.158C400.917 199.273 400.218 200.015 399.946 200.383L398.327 204.112L404.769 214.618L410.285 203.574L408.582 200.578L408.284 200.104C408.084 199.789 407.84 199.502 407.552 199.245C407.263 198.987 406.974 198.73 406.686 198.472C405.991 197.97 405.544 197.562 405.344 197.246C404.917 196.57 404.831 195.734 405.087 194.74C405.342 193.746 405.827 193.016 406.542 192.55C407.346 192.026 408.179 191.897 409.041 192.163C409.902 192.429 410.575 192.945 411.059 193.712C411.372 194.208 411.531 194.709 411.535 195.215C411.56 195.454 411.584 195.693 411.609 195.931C411.633 196.17 411.695 196.417 411.792 196.671L412.72 198.74L413.548 197.055C413.714 196.819 413.846 196.478 413.943 196.033C414.012 195.542 414.075 194.992 414.131 194.382C414.289 193.134 414.748 192.262 415.507 191.767C415.999 191.446 416.588 191.381 417.275 191.569C417.933 191.713 418.447 192.078 418.817 192.665C419.557 193.837 419.359 194.921 418.222 195.917C417.085 196.913 416.356 197.707 416.035 198.298L415.207 199.983C416.946 199.741 418.017 199.489 418.419 199.227C419.58 198.469 420.561 198.275 421.362 198.645C422.207 198.985 422.844 199.493 423.271 200.169C423.755 200.936 423.84 201.771 423.528 202.675C423.26 203.55 422.724 204.25 421.92 204.774C421.071 205.327 420.137 205.395 419.117 204.978C418.097 204.561 417.138 204.39 416.24 204.466C415.358 204.468 414.174 204.54 412.687 204.682L406.952 215.678L419.177 214.965C419.969 213.621 420.543 212.483 420.9 211.55C421.302 210.588 421.531 209.802 421.588 209.192C421.701 207.973 422.182 207.086 423.031 206.533C423.879 205.979 424.751 205.761 425.645 205.879C426.539 205.996 427.228 206.438 427.712 207.205C428.167 207.927 428.357 208.726 428.28 209.604C428.203 210.481 427.606 211.284 426.489 212.012C426.043 212.304 425.385 213.21 424.516 214.731L426.284 214.534C426.946 214.484 427.685 214.257 428.502 213.852C429.2 213.46 429.946 213.292 430.738 213.349C431.575 213.376 432.179 213.683 432.549 214.269C432.891 214.81 433.003 215.437 432.885 216.15C432.768 216.863 432.441 217.395 431.905 217.744C431.101 218.269 430.254 218.375 429.364 218.064C428.518 217.724 427.868 217.543 427.413 217.522C426.929 217.455 425.989 217.463 424.591 217.547L426.055 219.266C426.169 219.447 426.53 219.72 427.14 220.087C427.693 220.363 428.112 220.726 428.396 221.177C428.766 221.764 428.919 222.555 428.855 223.552C428.762 224.504 428.224 225.3 427.241 225.941C426.66 226.32 425.858 226.397 424.834 226.173C423.826 225.876 423.108 225.388 422.681 224.712C422.539 224.486 422.427 224.209 422.346 223.88C422.236 223.506 422.12 223.073 421.998 222.58C421.904 222.131 421.745 221.63 421.521 221.076C421.269 220.476 420.958 219.883 420.588 219.297L419.386 217.693L407.075 218.271L413.785 228.602L417.796 228.661C418.003 228.589 418.336 228.468 418.795 228.296C419.254 228.124 419.861 227.887 420.617 227.586C422.083 227.011 423.343 227.559 424.397 229.228C424.852 229.949 425.005 230.741 424.855 231.602C424.721 232.39 424.23 233.06 423.381 233.613C422.443 234.225 421.574 234.346 420.773 233.977C420.367 233.733 420.017 233.579 419.724 233.515C419.432 233.451 419.212 233.403 419.066 233.371L416.604 233.066L417.628 234.69C418.056 235.366 418.625 235.919 419.336 236.346C420.047 236.774 420.56 237.235 420.873 237.731C421.186 238.228 421.255 238.787 421.081 239.41C420.98 240.049 420.639 240.558 420.058 240.936Z" fill="white"/>
<g clip-path="url(#clip2_1_2)">
<path d="M310.404 171.794L314.008 171.043L316.334 173.956L316.759 170.228L320.176 168.871L316.844 167.321L316.613 163.572L314.119 166.312L310.57 165.385L312.376 168.65L310.404 171.794ZM306.158 174.767L310.036 168.589L306.477 162.213L313.473 164.058L318.324 158.662L318.751 165.959L325.329 169.001L318.614 171.677L317.799 178.958L313.223 173.294L306.158 174.767Z" fill="white"/>
</g>
<g clip-path="url(#clip3_1_2)">
<path d="M139.679 152.202L142.135 149.419L145.711 150.353L143.868 147.1L145.819 143.942L142.234 144.712L139.853 141.839L139.454 145.55L136.059 146.952L139.422 148.483L139.679 152.202ZM138.009 157.159L137.507 149.849L130.912 146.879L137.614 144.13L138.353 136.859L142.969 142.464L150.037 140.93L146.208 147.143L149.818 153.486L142.823 151.703L138.009 157.159Z" fill="white"/>
</g>
<g clip-path="url(#clip4_1_2)">
<path d="M174.337 180.884L177.895 179.933L180.375 182.712L180.597 178.965L183.936 177.419L180.525 176.057L180.091 172.327L177.749 175.203L174.156 174.476L176.136 177.634L174.337 180.884ZM170.259 184.09L173.796 177.705L169.897 171.538L176.982 172.989L181.534 167.33L182.355 174.591L189.088 177.261L182.528 180.309L182.11 187.624L177.233 182.225L170.259 184.09Z" fill="white"/>
</g>
<path d="M370.539 190.226L374.054 189.123L376.648 191.793L376.714 188.04L379.986 186.353L376.522 185.138L375.934 181.43L373.713 184.404L370.092 183.83L372.201 186.902L370.539 190.226ZM366.598 193.603L369.867 187.072L365.716 181.077L372.855 182.224L377.168 176.375L378.29 183.595L385.127 185.974L378.699 189.3L378.584 196.627L373.488 191.441L366.598 193.603Z" fill="white"/>
<g clip-path="url(#clip5_1_2)">
<path d="M420.3 182.58L423.979 182.574L425.687 185.899L426.834 182.331L430.449 181.693L427.488 179.5L427.996 175.779L425.015 177.96L421.719 176.333L422.848 179.898L420.3 182.58ZM415.557 184.634L420.568 179.365L418.329 172.396L424.823 175.62L430.635 171.315L429.623 178.551L435.473 182.864L428.368 184.127L426.143 191.097L422.768 184.621L415.557 184.634Z" fill="white"/>
</g>
<g clip-path="url(#clip6_1_2)">
<path d="M230.043 188.35L234.971 183.002L232.626 176.07L239.169 179.19L244.913 174.793L244.013 182.044L249.929 186.263L242.844 187.64L240.727 194.645L237.253 188.223L230.043 188.35Z" fill="white"/>
</g>
<g clip-path="url(#clip7_1_2)">
<path d="M469.688 160.59L474.574 155.202L472.174 148.289L478.741 151.356L484.451 146.911L483.608 154.17L489.557 158.34L482.483 159.775L480.422 166.797L476.897 160.403L469.688 160.59Z" fill="white"/>
</g>
<defs>
<clipPath id="clip0_1_2">
<rect width="84.1473" height="67.9722" fill="white" transform="matrix(0.943219 -0.332171 0.322753 0.946483 353.346 128.951)"/>
</clipPath>
<clipPath id="clip1_1_2">
<rect width="58.1301" height="58.8135" fill="white" transform="matrix(0.926775 0.375616 -0.36532 0.930882 195.486 106.081)"/>
</clipPath>
<clipPath id="clip2_1_2">
<rect width="24.0438" height="24.3466" fill="white" transform="matrix(0.940866 0.338778 -0.329218 0.944254 308.015 151.716)"/>
</clipPath>
<clipPath id="clip3_1_2">
<rect width="24.0336" height="24.3566" fill="white" transform="matrix(0.954875 -0.297007 0.288386 0.957514 126 137.513)"/>
</clipPath>
<clipPath id="clip4_1_2">
<rect width="24.0311" height="24.3591" fill="white" transform="matrix(0.9583 0.285765 -0.277413 0.960751 170.864 160.971)"/>
</clipPath>
<clipPath id="clip5_1_2">
<rect width="24.104" height="24.287" fill="white" transform="matrix(0.853483 0.52112 -0.50893 0.860808 421.894 162.421)"/>
</clipPath>
<clipPath id="clip6_1_2">
<rect width="24.0986" height="24.2923" fill="white" transform="matrix(0.861614 0.507563 -0.495471 0.868625 236.036 166.039)"/>
</clipPath>
<clipPath id="clip7_1_2">
<rect width="24.0959" height="24.295" fill="white" transform="matrix(0.865704 0.500555 -0.48852 0.872553 475.504 138.231)"/>
</clipPath>
</defs>
</svg>
